<?xml version="1.0" encoding="utf-8"?>
<!-- Generator: Adobe Illustrator 26.5.0, SVG Export Plug-In . SVG Version: 6.00 Build 0)  -->
<svg version="1.1" id="_Слой_1" xmlns="http://www.w3.org/2000/svg" xmlns:xlink="http://www.w3.org/1999/xlink" x="0px"
	 y="0px" viewBox="0 0 1965.2 1076.9" style="enable-background:new 0 0 1965.2 1076.9;" xml:space="preserve">
<style type="text/css">
	.st0{fill:none;stroke:#42210c;stroke-width:3;stroke-linecap:round;}
	.st1{fill:none;stroke:#42210c;stroke-width:3;stroke-linecap:round;}
</style>
<g>
	<path class="st0" d="M40.4,30.2c0.3-3.6,0-7.4,0.9-11c0.3-1.3,1-1.5,2-0.8c3.1,2.3,5.4,4.2,9.2,5.4c10.4,3.5,22.3-3.3,28.2-12
		c1.1-1.6,2.2-3.5,2.4-5.4c0.2-1.5-0.3-1.3-0.7,0.1c-1.2,4.6-1.6,9.4-2.5,14.1c-2,10.2-4.3,20.6-7.7,30.5c-2.4,7.2-5.5,14.6-9.7,21
		c-3.6,5.4-9.1,12.5-15.2,15.3c-6.9,3.2-6.9-12-5.7-15.9c1.6-5,5.2-0.4,7.5,1.5"/>
	<path class="st0" d="M76,77.3c0.8-0.2,1-2.3,0.8-2.9c-1.9-7.6-13.3,7.3-14.3,9c-1.5,2.7-2,4.6,1.6,2.9c5.2-2.6,8.8-6.7,12.7-10.8
		c0.3-0.3,2-3.1,1.4-1.9c-1.3,2.5-3.2,5.6-3.1,8.6c0.2,4.1,6.4,2,8.6,1.1c4.3-1.8,8.2-5.6,10.8-9.3c3.6-5.3-0.8,1-1.7,3.1
		c-1.1,2.6-2.6,12,2.7,9c5-2.8,8.6-7,12.6-11c1.4-1.4,2.9-2.7,3.9-4.5"/>
	<path class="st0" d="M124.4,75.9c0-2.5-0.2-5.3-3-6.2c-4.3-1.4-7.2,5.3-8.9,7.9c-0.2,0.2-5.6,8.5-3.6,7.2c4.6-2.7,8.6-6,12.5-9.7
		c0.2-0.2,2.8-3.1,3.1-2.4c1.1,2.3,0.2,5.6,0.3,8c0.1,8.4,9.1,2.9,14.1,1.5"/>
	<path class="st0" d="M233,72.9c0.2-1.6,0.3-2.6-1.1-3.9c-4.6-4.2-13.7,4.6-16.3,8.1c-1.6,2.1-3.6,4.9-4.1,7.6
		c-0.5,2.6,5.1-1.6,7.2-3c9.7-6.6,17.5-14.8,24.4-24.2c4.7-6.4,9.9-14,10.9-22.1c0.5-4.5-2.7-0.1-3.7,1.5
		c-6.9,10.8-10.8,23.5-15.8,35.2c-1.9,4.5-4.1,8.8-5.6,13.5"/>
	<path class="st0" d="M235.4,85.2c1.4-1.8,3.3-3.3,5-4.9c4.3-3.9,10.4-7.9,13.3-13.1c0.5-0.9,1-2.6-0.7-2.7
		c-3.8-0.4-9.2,4.2-11.7,6.6c-2.1,1.9-6.6,9.1-1.7,11c5.5,2.1,13.9-0.4,19.4-1.5c7.2-1.5,14.4-3,21.7-4.3"/>
	<path class="st0" d="M195.8,41.7c1.4-1.5,4.5-5.7,0.9-6.9c-3.6-1.2-9,1.4-11.9,3c-8.5,4.7-16.3,11.7-22.6,19
		c-2.9,3.3-23,26.7-10.9,28.3c7.4,1,16.3-2,23.3-4c7.9-2.3,15.4-5.9,23-9.2"/>
	<path class="st0" d="M190.9,77c-0.6,10.7,17.2,2.3,20.8-2c4.2-5,2.5-10.4-4.7-7.9c-10,3.5-18.3,9.6-24.6,18"/>
</g>
<g>
	<path class="st0" d="M484.2,25.8c0.3-3.6,0-7.4,0.9-11c0.3-1.3,1-1.5,2-0.8c3.1,2.3,5.4,4.2,9.2,5.4c10.4,3.5,22.3-3.3,28.2-12
		c1.1-1.6,2.2-3.5,2.4-5.4c0.2-1.5-0.3-1.3-0.7,0.1c-1.2,4.6-1.6,9.4-2.5,14.1c-2,10.2-4.3,20.6-7.7,30.5c-2.4,7.2-5.5,14.6-9.7,21
		c-3.6,5.4-9.1,12.5-15.2,15.3c-6.9,3.2-6.9-12-5.7-15.9c1.6-5,5.2-0.4,7.5,1.5"/>
	<path class="st0" d="M519.8,72.9c0.8-0.2,1-2.3,0.8-2.9c-1.9-7.6-13.3,7.3-14.3,9c-1.5,2.7-2,4.6,1.6,2.9
		c5.2-2.6,8.8-6.7,12.7-10.8c0.3-0.3,2-3.1,1.4-1.9c-1.3,2.5-3.2,5.6-3.1,8.6c0.2,4.1,6.4,2,8.6,1.1c4.3-1.8,8.2-5.6,10.8-9.3
		c3.6-5.3-0.8,1-1.7,3.1c-1.1,2.6-2.6,12,2.7,9c5-2.8,8.6-7,12.6-11c1.4-1.4,2.9-2.7,3.9-4.5"/>
	<path class="st0" d="M568.1,71.4c0-2.5-0.2-5.3-3-6.2c-4.3-1.4-7.2,5.3-8.9,7.9c-0.2,0.2-5.6,8.5-3.6,7.2c4.6-2.7,8.6-6,12.5-9.7
		c0.2-0.2,2.8-3.1,3.1-2.4c1.1,2.3,0.2,5.6,0.3,8c0.1,8.4,9.1,2.9,14.1,1.5"/>
	<path class="st0" d="M676.8,68.5c0.2-1.6,0.3-2.6-1.1-3.9c-4.6-4.2-13.7,4.6-16.3,8.1c-1.6,2.1-3.6,4.9-4.1,7.6
		c-0.5,2.6,5.1-1.6,7.2-3c9.7-6.6,17.5-14.8,24.4-24.2c4.7-6.4,9.9-14,10.9-22.1c0.5-4.5-2.7-0.1-3.7,1.5
		C687,43.2,683.1,56,678.2,67.7c-1.9,4.5-4.1,8.8-5.6,13.5"/>
	<path class="st0" d="M679.2,80.7c1.4-1.8,3.3-3.3,5-4.9c4.3-3.9,10.4-7.9,13.3-13.1c0.5-0.9,1-2.6-0.7-2.7
		c-3.8-0.4-9.2,4.2-11.7,6.6c-2.1,1.9-6.6,9.1-1.7,11c5.5,2.1,13.9-0.4,19.4-1.5c7.2-1.5,14.4-3,21.7-4.3"/>
	<path class="st0" d="M639.6,37.2c1.4-1.5,4.5-5.7,0.9-6.9c-3.6-1.2-9,1.4-11.9,3c-8.5,4.7-16.3,11.7-22.6,19
		c-2.9,3.3-23,26.7-10.9,28.3c7.4,1,16.3-2,23.3-4c7.9-2.3,15.4-5.9,23-9.2"/>
	<path class="st0" d="M634.7,72.5c-0.6,10.7,17.2,2.3,20.8-2c4.2-5,2.5-10.4-4.7-7.9c-10,3.5-18.3,9.6-24.6,18"/>
</g>
<g>
	<path class="st0" d="M240.9,194.7c0.3-3.6,0-7.4,0.9-11c0.3-1.3,1-1.5,2-0.8c3.1,2.3,5.4,4.2,9.2,5.4c10.4,3.5,22.3-3.3,28.2-12
		c1.1-1.6,2.2-3.5,2.4-5.4c0.2-1.5-0.3-1.3-0.7,0.1c-1.2,4.6-1.6,9.4-2.5,14.1c-2,10.2-4.3,20.6-7.7,30.5c-2.4,7.2-5.5,14.6-9.7,21
		c-3.6,5.4-9.1,12.5-15.2,15.3c-6.9,3.2-6.9-12-5.7-15.9c1.6-5,5.2-0.4,7.5,1.5"/>
	<path class="st0" d="M276.5,241.7c0.8-0.2,1-2.3,0.8-2.9c-1.9-7.6-13.3,7.3-14.3,9c-1.5,2.7-2,4.6,1.6,2.9
		c5.2-2.6,8.8-6.7,12.7-10.8c0.3-0.3,2-3.1,1.4-1.9c-1.3,2.5-3.2,5.6-3.1,8.6c0.2,4.1,6.4,2,8.6,1.1c4.3-1.8,8.2-5.6,10.8-9.3
		c3.6-5.3-0.8,1-1.7,3.1c-1.1,2.6-2.6,12,2.7,9c5-2.8,8.6-7,12.6-11c1.4-1.4,2.9-2.7,3.9-4.5"/>
	<path class="st0" d="M324.9,240.3c0-2.5-0.2-5.3-3-6.2c-4.3-1.4-7.2,5.3-8.9,7.9c-0.2,0.2-5.6,8.5-3.6,7.2c4.6-2.7,8.6-6,12.5-9.7
		c0.2-0.2,2.8-3.1,3.1-2.4c1.1,2.3,0.2,5.6,0.3,8c0.1,8.4,9.1,2.9,14.1,1.5"/>
	<path class="st0" d="M433.5,237.4c0.2-1.6,0.3-2.6-1.1-3.9c-4.6-4.2-13.7,4.6-16.3,8.1c-1.6,2.1-3.6,4.9-4.1,7.6
		c-0.5,2.6,5.1-1.6,7.2-3c9.7-6.6,17.5-14.8,24.4-24.2c4.7-6.4,9.9-14,10.9-22.1c0.5-4.5-2.7-0.1-3.7,1.5
		c-6.9,10.8-10.8,23.5-15.8,35.2c-1.9,4.5-4.1,8.8-5.6,13.5"/>
	<path class="st0" d="M435.9,249.6c1.4-1.8,3.3-3.3,5-4.9c4.3-3.9,10.4-7.9,13.3-13.1c0.5-0.9,1-2.6-0.7-2.7
		c-3.8-0.4-9.2,4.2-11.7,6.6c-2.1,1.9-6.6,9.1-1.7,11c5.5,2.1,13.9-0.4,19.4-1.5c7.2-1.5,14.4-3,21.7-4.3"/>
	<path class="st0" d="M396.3,206.1c1.4-1.5,4.5-5.7,0.9-6.9c-3.6-1.2-9,1.4-11.9,3c-8.5,4.7-16.3,11.7-22.6,19
		c-2.9,3.3-23,26.7-10.9,28.3c7.4,1,16.3-2,23.3-4c7.9-2.3,15.4-5.9,23-9.2"/>
	<path class="st0" d="M391.4,241.4c-0.6,10.7,17.2,2.3,20.8-2c4.2-5,2.5-10.4-4.7-7.9c-10,3.5-18.3,9.6-24.6,18"/>
</g>
<g>
	<path class="st0" d="M925.1,26c0.3-3.6,0-7.4,0.9-11c0.3-1.3,1-1.5,2-0.8c3.1,2.3,5.4,4.2,9.2,5.4c10.4,3.5,22.3-3.3,28.2-12
		c1.1-1.6,2.2-3.5,2.4-5.4c0.2-1.5-0.3-1.3-0.7,0.1c-1.2,4.6-1.6,9.4-2.5,14.1c-2,10.2-4.3,20.6-7.7,30.5c-2.4,7.2-5.5,14.6-9.7,21
		c-3.6,5.4-9.1,12.5-15.2,15.3c-6.9,3.2-6.9-12-5.7-15.9c1.6-5,5.2-0.4,7.5,1.5"/>
	<path class="st0" d="M960.7,73.1c0.8-0.2,1-2.3,0.8-2.9c-1.9-7.6-13.3,7.3-14.3,9c-1.5,2.7-2,4.6,1.6,2.9
		c5.2-2.6,8.8-6.7,12.7-10.8c0.3-0.3,2-3.1,1.4-1.9c-1.3,2.5-3.2,5.6-3.1,8.6c0.2,4.1,6.4,2,8.6,1.1c4.3-1.8,8.2-5.6,10.8-9.3
		c3.6-5.3-0.8,1-1.7,3.1c-1.1,2.6-2.6,12,2.7,9c5-2.8,8.6-7,12.6-11c1.4-1.4,2.9-2.7,3.9-4.5"/>
	<path class="st0" d="M1009.1,71.7c0-2.5-0.2-5.3-3-6.2c-4.3-1.4-7.2,5.3-8.9,7.9c-0.2,0.2-5.6,8.5-3.6,7.2c4.6-2.7,8.6-6,12.5-9.7
		c0.2-0.2,2.8-3.1,3.1-2.4c1.1,2.3,0.2,5.6,0.3,8c0.1,8.4,9.1,2.9,14.1,1.5"/>
	<path class="st0" d="M1117.7,68.7c0.2-1.6,0.3-2.6-1.1-3.9c-4.6-4.2-13.7,4.6-16.3,8.1c-1.6,2.1-3.6,4.9-4.1,7.6
		c-0.5,2.6,5.1-1.6,7.2-3c9.7-6.6,17.5-14.8,24.4-24.2c4.7-6.4,9.9-14,10.9-22.1c0.5-4.5-2.7-0.1-3.7,1.5
		c-6.9,10.8-10.8,23.5-15.8,35.2c-1.9,4.5-4.1,8.8-5.6,13.5"/>
	<path class="st0" d="M1120.1,81c1.4-1.8,3.3-3.3,5-4.9c4.3-3.9,10.4-7.9,13.3-13.1c0.5-0.9,1-2.6-0.7-2.7
		c-3.8-0.4-9.2,4.2-11.7,6.6c-2.1,1.9-6.6,9.1-1.7,11c5.5,2.1,13.9-0.4,19.4-1.5c7.2-1.5,14.4-3,21.7-4.3"/>
	<path class="st0" d="M1080.5,37.5c1.4-1.5,4.5-5.7,0.9-6.9c-3.6-1.2-9,1.4-11.9,3c-8.5,4.7-16.3,11.7-22.6,19
		c-2.9,3.3-23,26.7-10.9,28.3c7.4,1,16.3-2,23.3-4c7.9-2.3,15.4-5.9,23-9.2"/>
	<path class="st0" d="M1075.6,72.8c-0.6,10.7,17.2,2.3,20.8-2c4.2-5,2.5-10.4-4.7-7.9c-10,3.5-18.3,9.6-24.6,18"/>
</g>
<g>
	<path class="st0" d="M1154,194.9c0.3-3.6,0-7.4,0.9-11c0.3-1.3,1-1.5,2-0.8c3.1,2.3,5.4,4.2,9.2,5.4c10.4,3.5,22.3-3.3,28.2-12
		c1.1-1.6,2.2-3.5,2.4-5.4c0.2-1.5-0.3-1.3-0.7,0.1c-1.2,4.6-1.6,9.4-2.5,14.1c-2,10.2-4.3,20.6-7.7,30.5c-2.4,7.2-5.5,14.6-9.7,21
		c-3.6,5.4-9.1,12.5-15.2,15.3c-6.9,3.2-6.9-12-5.7-15.9c1.6-5,5.2-0.4,7.5,1.5"/>
	<path class="st0" d="M1189.6,242c0.8-0.2,1-2.3,0.8-2.9c-1.9-7.6-13.3,7.3-14.3,9c-1.5,2.7-2,4.6,1.6,2.9
		c5.2-2.6,8.8-6.7,12.7-10.8c0.3-0.3,2-3.1,1.4-1.9c-1.3,2.5-3.2,5.6-3.1,8.6c0.2,4.1,6.4,2,8.6,1.1c4.3-1.8,8.2-5.6,10.8-9.3
		c3.6-5.3-0.8,1-1.7,3.1c-1.1,2.6-2.6,12,2.7,9c5-2.8,8.6-7,12.6-11c1.4-1.4,2.9-2.7,3.9-4.5"/>
	<path class="st0" d="M1237.9,240.5c0-2.5-0.2-5.3-3-6.2c-4.3-1.4-7.2,5.3-8.9,7.9c-0.2,0.2-5.6,8.5-3.6,7.2c4.6-2.7,8.6-6,12.5-9.7
		c0.2-0.2,2.8-3.1,3.1-2.4c1.1,2.3,0.2,5.6,0.3,8c0.1,8.4,9.1,2.9,14.1,1.5"/>
	<path class="st0" d="M1346.5,237.6c0.2-1.6,0.3-2.6-1.1-3.9c-4.6-4.2-13.7,4.6-16.3,8.1c-1.6,2.1-3.6,4.9-4.1,7.6
		c-0.5,2.6,5.1-1.6,7.2-3.1c9.7-6.6,17.5-14.8,24.4-24.2c4.7-6.4,9.9-14,10.9-22.1c0.5-4.5-2.7-0.1-3.7,1.5
		c-6.9,10.8-10.8,23.5-15.8,35.2c-1.9,4.5-4.1,8.8-5.6,13.5"/>
	<path class="st0" d="M1349,249.8c1.4-1.8,3.3-3.3,5-4.9c4.3-3.9,10.4-7.9,13.3-13.1c0.5-0.9,1-2.6-0.7-2.7
		c-3.8-0.4-9.2,4.2-11.7,6.6c-2.1,1.9-6.6,9.1-1.7,11c5.5,2.1,13.9-0.4,19.4-1.5c7.2-1.5,14.4-3,21.7-4.3"/>
	<path class="st0" d="M1309.4,206.3c1.4-1.5,4.5-5.7,0.9-6.9c-3.6-1.2-9,1.4-11.9,3c-8.5,4.7-16.3,11.7-22.6,19
		c-2.9,3.3-23,26.7-10.9,28.3c7.4,1,16.3-2,23.3-4c7.9-2.3,15.4-5.9,23-9.2"/>
	<path class="st0" d="M1304.5,241.6c-0.6,10.7,17.2,2.3,20.8-2c4.2-5,2.5-10.4-4.7-7.9c-10,3.5-18.3,9.6-24.6,18"/>
</g>
<g>
	<path class="st0" d="M702.7,195.2c0.3-3.6,0-7.4,0.9-11c0.3-1.3,1-1.5,2-0.8c3.1,2.3,5.4,4.2,9.2,5.4c10.4,3.5,22.3-3.3,28.2-12
		c1.1-1.6,2.2-3.5,2.4-5.4c0.2-1.5-0.3-1.3-0.7,0.1c-1.2,4.6-1.6,9.4-2.5,14.1c-2,10.2-4.3,20.6-7.7,30.5c-2.4,7.2-5.5,14.6-9.7,21
		c-3.6,5.4-9.1,12.5-15.2,15.3c-6.9,3.2-6.9-12-5.7-15.9c1.6-5,5.2-0.4,7.5,1.5"/>
	<path class="st0" d="M738.3,242.2c0.8-0.2,1-2.3,0.8-2.9c-1.9-7.6-13.3,7.3-14.3,9c-1.5,2.7-2,4.6,1.6,2.9
		c5.2-2.6,8.8-6.7,12.7-10.8c0.3-0.3,2-3.1,1.4-1.9c-1.3,2.5-3.2,5.6-3.1,8.6c0.2,4.1,6.4,2,8.6,1.1c4.3-1.8,8.2-5.6,10.8-9.3
		c3.6-5.3-0.8,1-1.7,3.1c-1.1,2.6-2.6,12,2.7,9c5-2.8,8.6-7,12.6-11c1.4-1.4,2.9-2.7,3.9-4.5"/>
	<path class="st0" d="M786.6,240.8c0-2.5-0.2-5.3-3-6.2c-4.3-1.4-7.2,5.3-8.9,7.9c-0.2,0.2-5.6,8.5-3.6,7.2c4.6-2.7,8.6-6,12.5-9.7
		c0.2-0.2,2.8-3.1,3.1-2.4c1.1,2.3,0.2,5.6,0.3,8c0.1,8.4,9.1,2.9,14.1,1.5"/>
	<path class="st0" d="M895.3,237.9c0.2-1.6,0.3-2.6-1.1-3.9c-4.6-4.2-13.7,4.6-16.3,8.1c-1.6,2.1-3.6,4.9-4.1,7.6
		c-0.5,2.6,5.1-1.6,7.2-3.1c9.7-6.6,17.5-14.8,24.4-24.2c4.7-6.4,9.9-14,10.9-22.1c0.5-4.5-2.7-0.1-3.7,1.5
		c-6.9,10.8-10.8,23.5-15.8,35.2c-1.9,4.5-4.1,8.8-5.6,13.5"/>
	<path class="st0" d="M897.7,250.1c1.4-1.8,3.3-3.3,5-4.9c4.3-3.9,10.4-7.9,13.3-13.1c0.5-0.9,1-2.6-0.7-2.7
		c-3.8-0.4-9.2,4.2-11.7,6.6c-2.1,1.9-6.6,9.1-1.7,11c5.5,2.1,13.9-0.4,19.4-1.5c7.2-1.5,14.4-3,21.7-4.3"/>
	<path class="st0" d="M858.1,206.6c1.4-1.5,4.5-5.7,0.9-6.9c-3.6-1.2-9,1.4-11.9,3c-8.5,4.7-16.3,11.7-22.6,19
		c-2.9,3.3-23,26.7-10.9,28.3c7.4,1,16.3-2,23.3-4c7.9-2.3,15.4-5.9,23-9.2"/>
	<path class="st0" d="M853.2,241.9c-0.6,10.7,17.2,2.3,20.8-2c4.2-5,2.5-10.4-4.7-7.9c-10,3.5-18.3,9.6-24.6,18"/>
</g>
<g>
	<path class="st0" d="M1836.5,24.9c0.3-3.6,0-7.4,0.9-11c0.3-1.3,1-1.5,2-0.8c3.1,2.3,5.4,4.2,9.2,5.4c10.4,3.5,22.3-3.3,28.2-12
		c1.1-1.6,2.2-3.5,2.4-5.4c0.2-1.5-0.3-1.3-0.7,0.1c-1.2,4.6-1.6,9.4-2.5,14.1c-2,10.2-4.3,20.6-7.7,30.5c-2.4,7.2-5.5,14.6-9.7,21
		c-3.6,5.4-9.1,12.5-15.2,15.3c-6.9,3.2-6.9-12-5.7-15.9c1.6-5,5.2-0.4,7.5,1.5"/>
	<path class="st0" d="M1872.1,72c0.8-0.2,1-2.3,0.8-2.9c-1.9-7.6-13.3,7.3-14.3,9c-1.5,2.7-2,4.6,1.6,2.9c5.2-2.6,8.8-6.7,12.7-10.8
		c0.3-0.3,2-3.1,1.4-1.9c-1.3,2.5-3.2,5.6-3.1,8.6c0.2,4.1,6.4,2,8.6,1.1c4.3-1.8,8.2-5.6,10.8-9.3c3.6-5.3-0.8,1-1.7,3.1
		c-1.1,2.6-2.6,12,2.7,9c5-2.8,8.6-7,12.6-11c1.4-1.4,2.9-2.7,3.9-4.5"/>
	<path class="st0" d="M1920.4,70.6c0-2.5-0.2-5.3-3-6.2c-4.3-1.4-7.2,5.3-8.9,7.9c-0.2,0.2-5.6,8.5-3.6,7.2c4.6-2.7,8.6-6,12.5-9.7
		c0.2-0.2,2.8-3.1,3.1-2.4c1.1,2.3,0.2,5.6,0.3,8c0.1,8.4,9.1,2.9,14.1,1.5"/>
	<path class="st0" d="M2029,67.6c0.2-1.6,0.3-2.6-1.1-3.9c-4.6-4.2-13.7,4.6-16.3,8.1c-1.6,2.1-3.6,4.9-4.1,7.6
		c-0.5,2.6,5.1-1.6,7.2-3c9.7-6.6,17.5-14.8,24.4-24.2c4.7-6.4,9.9-14,10.9-22.1c0.5-4.5-2.7-0.1-3.7,1.5
		c-6.9,10.8-10.8,23.5-15.8,35.2c-1.9,4.5-4.1,8.8-5.6,13.5"/>
	<path class="st0" d="M2031.5,79.9c1.4-1.8,3.3-3.3,5-4.9c4.3-3.9,10.4-7.9,13.3-13.1c0.5-0.9,1-2.6-0.7-2.7
		c-3.8-0.4-9.2,4.2-11.7,6.6c-2.1,1.9-6.6,9.1-1.7,11c5.5,2.1,13.9-0.4,19.4-1.5c7.2-1.5,14.4-3,21.7-4.3"/>
	<path class="st0" d="M1991.9,36.4c1.4-1.5,4.5-5.7,0.9-6.9c-3.6-1.2-9,1.4-11.9,3c-8.5,4.7-16.3,11.7-22.6,19
		c-2.9,3.3-23,26.7-10.9,28.3c7.4,1,16.3-2,23.3-4c7.9-2.3,15.4-5.9,23-9.2"/>
	<path class="st0" d="M1987,71.7c-0.6,10.7,17.2,2.3,20.8-2c4.2-5,2.5-10.4-4.7-7.9c-10,3.5-18.3,9.6-24.6,18"/>
</g>
<g>
	<path class="st0" d="M1383.1,27.3c0.3-3.6,0-7.4,0.9-11c0.3-1.3,1-1.5,2-0.8c3.1,2.3,5.4,4.2,9.2,5.4c10.4,3.5,22.3-3.3,28.2-12
		c1.1-1.6,2.2-3.5,2.4-5.4c0.2-1.5-0.3-1.3-0.7,0.1c-1.2,4.6-1.6,9.4-2.5,14.1c-2,10.2-4.3,20.6-7.7,30.5c-2.4,7.2-5.5,14.6-9.7,21
		c-3.6,5.4-9.1,12.5-15.2,15.3c-6.9,3.2-6.9-12-5.7-15.9c1.6-5,5.2-0.4,7.5,1.5"/>
	<path class="st0" d="M1418.7,74.4c0.8-0.2,1-2.3,0.8-2.9c-1.9-7.6-13.3,7.3-14.3,9c-1.5,2.7-2,4.6,1.6,2.9
		c5.2-2.6,8.8-6.7,12.7-10.8c0.3-0.3,2-3.1,1.4-1.9c-1.3,2.5-3.2,5.6-3.1,8.6c0.2,4.1,6.4,2,8.6,1.1c4.3-1.8,8.2-5.6,10.8-9.3
		c3.6-5.3-0.8,1-1.7,3.1c-1.1,2.6-2.6,12,2.7,9c5-2.8,8.6-7,12.6-11c1.4-1.4,2.9-2.7,3.9-4.5"/>
	<path class="st0" d="M1467.1,73c0-2.5-0.2-5.3-3-6.2c-4.3-1.4-7.2,5.3-8.9,7.9c-0.2,0.2-5.6,8.5-3.6,7.2c4.6-2.7,8.6-6,12.5-9.7
		c0.2-0.2,2.8-3.1,3.1-2.4c1.1,2.3,0.2,5.6,0.3,8c0.1,8.4,9.1,2.9,14.1,1.5"/>
	<path class="st0" d="M1575.7,70c0.2-1.6,0.3-2.6-1.1-3.9c-4.6-4.2-13.7,4.6-16.3,8.1c-1.6,2.1-3.6,4.9-4.1,7.6
		c-0.5,2.6,5.1-1.6,7.2-3c9.7-6.6,17.5-14.8,24.4-24.2c4.7-6.4,9.9-14,10.9-22.1c0.5-4.5-2.7-0.1-3.7,1.5
		c-6.9,10.8-10.8,23.5-15.8,35.2c-1.9,4.5-4.1,8.8-5.6,13.5"/>
	<path class="st0" d="M1578.1,82.3c1.4-1.8,3.3-3.3,5-4.9c4.3-3.9,10.4-7.9,13.3-13.1c0.5-0.9,1-2.6-0.7-2.7
		c-3.8-0.4-9.2,4.2-11.7,6.6c-2.1,1.9-6.6,9.1-1.7,11c5.5,2.1,13.9-0.4,19.4-1.5c7.2-1.5,14.4-3,21.7-4.3"/>
	<path class="st0" d="M1538.5,38.8c1.4-1.5,4.5-5.7,0.9-6.9c-3.6-1.2-9,1.4-11.9,3c-8.5,4.7-16.3,11.7-22.6,19
		c-2.9,3.3-23,26.7-10.9,28.3c7.4,1,16.3-2,23.3-4c7.9-2.3,15.4-5.9,23-9.2"/>
	<path class="st0" d="M1533.6,74.1c-0.6,10.7,17.2,2.3,20.8-2c4.2-5,2.5-10.4-4.7-7.9c-10,3.5-18.3,9.6-24.6,18"/>
</g>
<g>
	<path class="st0" d="M592.8,365.8c0.3-3.6,0-7.4,0.9-11c0.3-1.3,1-1.5,2-0.8c3.1,2.3,5.4,4.2,9.2,5.4c10.4,3.5,22.3-3.3,28.2-12
		c1.1-1.6,2.2-3.5,2.4-5.4c0.2-1.5-0.3-1.3-0.7,0.1c-1.2,4.6-1.6,9.4-2.5,14.1c-2,10.2-4.3,20.6-7.7,30.5c-2.4,7.2-5.5,14.6-9.7,21
		c-3.6,5.4-9.1,12.5-15.2,15.3c-6.9,3.2-6.9-12-5.7-15.9c1.6-5,5.2-0.4,7.5,1.5"/>
	<path class="st0" d="M628.4,412.9c0.8-0.2,1-2.3,0.8-2.9c-1.9-7.6-13.3,7.3-14.3,9c-1.5,2.7-2,4.6,1.6,2.9
		c5.2-2.6,8.8-6.7,12.7-10.8c0.3-0.3,2-3.1,1.4-1.9c-1.3,2.5-3.2,5.6-3.1,8.6c0.2,4.1,6.4,2,8.6,1.1c4.3-1.8,8.2-5.6,10.8-9.3
		c3.6-5.3-0.8,1-1.7,3.1c-1.1,2.6-2.6,12,2.7,9c5-2.8,8.6-7,12.6-11c1.4-1.4,2.9-2.7,3.9-4.5"/>
	<path class="st0" d="M676.7,411.5c0-2.5-0.2-5.3-3-6.2c-4.3-1.4-7.2,5.3-8.9,7.9c-0.2,0.2-5.6,8.5-3.6,7.2c4.6-2.7,8.6-6,12.5-9.7
		c0.2-0.2,2.8-3.1,3.1-2.4c1.1,2.3,0.2,5.6,0.3,8c0.1,8.4,9.1,2.9,14.1,1.5"/>
	<path class="st0" d="M785.4,408.5c0.2-1.6,0.3-2.6-1.1-3.9c-4.6-4.2-13.7,4.6-16.3,8.1c-1.6,2.1-3.6,4.9-4.1,7.6
		c-0.5,2.6,5.1-1.6,7.2-3c9.7-6.6,17.5-14.8,24.4-24.2c4.7-6.4,9.9-14,10.9-22.1c0.5-4.5-2.7-0.1-3.7,1.5
		c-6.9,10.8-10.8,23.5-15.8,35.2c-1.9,4.5-4.1,8.8-5.6,13.5"/>
	<path class="st0" d="M787.8,420.7c1.4-1.8,3.3-3.3,5-4.9c4.3-3.9,10.4-7.9,13.3-13.1c0.5-0.9,1-2.6-0.7-2.7
		c-3.8-0.4-9.2,4.2-11.7,6.6c-2.1,1.9-6.6,9.1-1.7,11c5.5,2.1,13.9-0.4,19.4-1.5c7.2-1.5,14.4-3,21.7-4.3"/>
	<path class="st0" d="M748.2,377.2c1.4-1.5,4.5-5.7,0.9-6.9c-3.6-1.2-9,1.4-11.9,3c-8.5,4.7-16.3,11.7-22.6,19
		c-2.9,3.3-23,26.7-10.9,28.3c7.4,1,16.3-2,23.3-4c7.9-2.3,15.4-5.9,23-9.2"/>
	<path class="st0" d="M743.3,412.6c-0.6,10.7,17.2,2.3,20.8-2c4.2-5,2.5-10.4-4.7-7.9c-10,3.5-18.3,9.6-24.6,18"/>
</g>
<g>
	<path class="st1" d="M128.6,361.7c0.3-3.6,0-7.4,0.9-11c0.3-1.3,1-1.5,2-0.8c3.1,2.3,5.4,4.2,9.2,5.4c10.4,3.5,22.3-3.3,28.2-12
		c1.1-1.6,2.2-3.5,2.4-5.4c0.2-1.5-0.3-1.3-0.7,0.1c-1.2,4.6-1.6,9.4-2.5,14.1c-2,10.2-4.3,20.6-7.7,30.5c-2.4,7.2-5.5,14.6-9.7,21
		c-3.6,5.4-9.1,12.5-15.2,15.3c-6.9,3.2-6.9-12-5.7-15.9c1.6-5,5.2-0.4,7.5,1.5"/>
	<path class="st1" d="M164.2,408.8c0.8-0.2,1-2.3,0.8-2.9c-1.9-7.6-13.3,7.3-14.3,9c-1.5,2.7-2,4.6,1.6,2.9
		c5.2-2.6,8.8-6.7,12.7-10.8c0.3-0.3,2-3.1,1.4-1.9c-1.3,2.5-3.2,5.6-3.1,8.6c0.2,4.1,6.4,2,8.6,1.1c4.3-1.8,8.2-5.6,10.8-9.3
		c3.6-5.3-0.8,1-1.7,3.1c-1.1,2.6-2.6,12,2.7,9c5-2.8,8.6-7,12.6-11c1.4-1.4,2.9-2.7,3.9-4.5"/>
	<path class="st1" d="M212.6,407.4c0-2.5-0.2-5.3-3-6.2c-4.3-1.4-7.2,5.3-8.9,7.9c-0.2,0.2-5.6,8.5-3.6,7.2c4.6-2.7,8.6-6,12.5-9.7
		c0.2-0.2,2.8-3.1,3.1-2.4c1.1,2.3,0.2,5.6,0.3,8c0.1,8.4,9.1,2.9,14.1,1.5"/>
	<path class="st1" d="M321.2,404.4c0.2-1.6,0.3-2.6-1.1-3.9c-4.6-4.2-13.7,4.6-16.3,8.1c-1.6,2.1-3.6,4.9-4.1,7.6
		c-0.5,2.6,5.1-1.6,7.2-3c9.7-6.6,17.5-14.8,24.4-24.2c4.7-6.4,9.9-14,10.9-22.1c0.5-4.5-2.7-0.1-3.7,1.5
		c-6.9,10.8-10.8,23.5-15.8,35.2c-1.9,4.5-4.1,8.8-5.6,13.5"/>
	<path class="st1" d="M323.6,416.7c1.4-1.8,3.3-3.3,5-4.9c4.3-3.9,10.4-7.9,13.3-13.1c0.5-0.9,1-2.6-0.7-2.7
		c-3.8-0.4-9.2,4.2-11.7,6.6c-2.1,1.9-6.6,9.1-1.7,11c5.5,2.1,13.9-0.4,19.4-1.5c7.2-1.5,14.4-3,21.7-4.3"/>
	<path class="st1" d="M284,373.2c1.4-1.5,4.5-5.7,0.9-6.9c-3.6-1.2-9,1.4-11.9,3c-8.5,4.7-16.3,11.7-22.6,19
		c-2.9,3.3-23,26.7-10.9,28.3c7.4,1,16.3-2,23.3-4c7.9-2.3,15.4-5.9,23-9.2"/>
	<path class="st1" d="M279.1,408.5c-0.6,10.7,17.2,2.3,20.8-2c4.2-5,2.5-10.4-4.7-7.9c-10,3.5-18.3,9.6-24.6,18"/>
</g>
<g>
	<path class="st0" d="M1611.5,188.7c0.3-3.6,0-7.4,0.9-11c0.3-1.3,1-1.5,2-0.8c3.1,2.3,5.4,4.2,9.2,5.4c10.4,3.5,22.3-3.3,28.2-12
		c1.1-1.6,2.2-3.5,2.4-5.4c0.2-1.5-0.3-1.3-0.7,0.1c-1.2,4.6-1.6,9.4-2.5,14.1c-2,10.2-4.3,20.6-7.7,30.5c-2.4,7.2-5.5,14.6-9.7,21
		c-3.6,5.4-9.1,12.5-15.2,15.3c-6.9,3.2-6.9-12-5.7-15.9c1.6-5,5.2-0.4,7.5,1.5"/>
	<path class="st0" d="M1647.1,235.8c0.8-0.2,1-2.3,0.8-2.9c-1.9-7.6-13.3,7.3-14.3,9c-1.5,2.7-2,4.6,1.6,2.9
		c5.2-2.6,8.8-6.7,12.7-10.8c0.3-0.3,2-3.1,1.4-1.9c-1.3,2.5-3.2,5.6-3.1,8.6c0.2,4.1,6.4,2,8.6,1.1c4.3-1.8,8.2-5.6,10.8-9.3
		c3.6-5.3-0.8,1-1.7,3.1c-1.1,2.6-2.6,12,2.7,9c5-2.8,8.6-7,12.6-11c1.4-1.4,2.9-2.7,3.9-4.5"/>
	<path class="st0" d="M1695.5,234.4c0-2.5-0.2-5.3-3-6.2c-4.3-1.4-7.2,5.3-8.9,7.9c-0.2,0.2-5.6,8.5-3.6,7.2c4.6-2.7,8.6-6,12.5-9.7
		c0.2-0.2,2.8-3.1,3.1-2.4c1.1,2.3,0.2,5.6,0.3,8c0.1,8.4,9.1,2.9,14.1,1.5"/>
	<path class="st0" d="M1804.1,231.4c0.2-1.6,0.3-2.6-1.1-3.9c-4.6-4.2-13.7,4.6-16.3,8.1c-1.6,2.1-3.6,4.9-4.1,7.6
		c-0.5,2.6,5.1-1.6,7.2-3c9.7-6.6,17.5-14.8,24.4-24.2c4.7-6.4,9.9-14,10.9-22.1c0.5-4.5-2.7-0.1-3.7,1.5
		c-6.9,10.8-10.8,23.5-15.8,35.2c-1.9,4.5-4.1,8.8-5.6,13.5"/>
	<path class="st0" d="M1806.5,243.7c1.4-1.8,3.3-3.3,5-4.9c4.3-3.9,10.4-7.9,13.3-13.1c0.5-0.9,1-2.6-0.7-2.7
		c-3.8-0.4-9.2,4.2-11.7,6.6c-2.1,1.9-6.6,9.1-1.7,11c5.5,2.1,13.9-0.4,19.4-1.5c7.2-1.5,14.4-3,21.7-4.3"/>
	<path class="st0" d="M1766.9,200.2c1.4-1.5,4.5-5.7,0.9-6.9c-3.6-1.2-9,1.4-11.9,3c-8.5,4.7-16.3,11.7-22.6,19
		c-2.9,3.3-23,26.7-10.9,28.3c7.4,1,16.3-2,23.3-4c7.9-2.3,15.4-5.9,23-9.2"/>
	<path class="st0" d="M1762,235.5c-0.6,10.7,17.2,2.3,20.8-2c4.2-5,2.5-10.4-4.7-7.9c-10,3.5-18.3,9.6-24.6,18"/>
</g>
<g>
	<path class="st0" d="M477.7,536.2c0.3-3.6,0-7.4,0.9-11c0.3-1.3,1-1.5,2-0.8c3.1,2.3,5.4,4.2,9.2,5.4c10.4,3.5,22.3-3.3,28.2-12
		c1.1-1.6,2.2-3.5,2.4-5.4c0.2-1.5-0.3-1.3-0.7,0.1c-1.2,4.6-1.6,9.4-2.5,14.1c-2,10.2-4.3,20.6-7.7,30.5c-2.4,7.2-5.5,14.6-9.7,21
		c-3.6,5.4-9.1,12.5-15.2,15.3c-6.9,3.2-6.9-12-5.7-15.9c1.6-5,5.2-0.4,7.5,1.5"/>
	<path class="st0" d="M513.3,583.2c0.8-0.2,1-2.3,0.8-2.9c-1.9-7.6-13.3,7.3-14.3,9c-1.5,2.7-2,4.6,1.6,2.9
		c5.2-2.6,8.8-6.7,12.7-10.8c0.3-0.3,2-3.1,1.4-1.9c-1.3,2.5-3.2,5.6-3.1,8.6c0.2,4.1,6.4,2,8.6,1.1c4.3-1.8,8.2-5.6,10.8-9.3
		c3.6-5.3-0.8,1-1.7,3.1c-1.1,2.6-2.6,12,2.7,9c5-2.8,8.6-7,12.6-11c1.4-1.4,2.9-2.7,3.9-4.5"/>
	<path class="st0" d="M561.7,581.8c0-2.5-0.2-5.3-3-6.2c-4.3-1.4-7.2,5.3-8.9,7.9c-0.2,0.2-5.6,8.5-3.6,7.2c4.6-2.7,8.6-6,12.5-9.7
		c0.2-0.2,2.8-3.1,3.1-2.4c1.1,2.3,0.2,5.6,0.3,8c0.1,8.4,9.1,2.9,14.1,1.5"/>
	<path class="st0" d="M670.3,578.9c0.2-1.6,0.3-2.6-1.1-3.9c-4.6-4.2-13.7,4.6-16.3,8.1c-1.6,2.1-3.6,4.9-4.1,7.6
		c-0.5,2.6,5.1-1.6,7.2-3c9.7-6.6,17.5-14.8,24.4-24.2c4.7-6.4,9.9-14,10.9-22.1c0.5-4.5-2.7-0.1-3.7,1.5
		c-6.9,10.8-10.8,23.5-15.8,35.2c-1.9,4.5-4.1,8.8-5.6,13.5"/>
	<path class="st0" d="M672.7,591.1c1.4-1.8,3.3-3.3,5-4.9c4.3-3.9,10.4-8,13.3-13.1c0.5-0.9,1-2.6-0.7-2.7
		c-3.8-0.4-9.2,4.2-11.7,6.6c-2.1,1.9-6.6,9.1-1.7,11c5.5,2.1,13.9-0.4,19.4-1.5c7.2-1.5,14.4-3,21.7-4.3"/>
	<path class="st0" d="M633.1,547.6c1.4-1.5,4.5-5.7,0.9-6.9c-3.6-1.2-9,1.4-11.9,3c-8.5,4.7-16.3,11.7-22.6,19
		c-2.9,3.3-23,26.7-10.9,28.3c7.4,1,16.3-2,23.3-4c7.9-2.3,15.4-5.9,23-9.2"/>
	<path class="st0" d="M628.2,582.9c-0.6,10.7,17.2,2.3,20.8-2c4.2-5,2.5-10.4-4.7-7.9c-10,3.5-18.3,9.6-24.6,18"/>
</g>
<g>
	<path class="st0" d="M477.7,536.2c0.3-3.6,0-7.4,0.9-11c0.3-1.3,1-1.5,2-0.8c3.1,2.3,5.4,4.2,9.2,5.4c10.4,3.5,22.3-3.3,28.2-12
		c1.1-1.6,2.2-3.5,2.4-5.4c0.2-1.5-0.3-1.3-0.7,0.1c-1.2,4.6-1.6,9.4-2.5,14.1c-2,10.2-4.3,20.6-7.7,30.5c-2.4,7.2-5.5,14.6-9.7,21
		c-3.6,5.4-9.1,12.5-15.2,15.3c-6.9,3.2-6.9-12-5.7-15.9c1.6-5,5.2-0.4,7.5,1.5"/>
	<path class="st0" d="M513.3,583.2c0.8-0.2,1-2.3,0.8-2.9c-1.9-7.6-13.3,7.3-14.3,9c-1.5,2.7-2,4.6,1.6,2.9
		c5.2-2.6,8.8-6.7,12.7-10.8c0.3-0.3,2-3.1,1.4-1.9c-1.3,2.5-3.2,5.6-3.1,8.6c0.2,4.1,6.4,2,8.6,1.1c4.3-1.8,8.2-5.6,10.8-9.3
		c3.6-5.3-0.8,1-1.7,3.1c-1.1,2.6-2.6,12,2.7,9c5-2.8,8.6-7,12.6-11c1.4-1.4,2.9-2.7,3.9-4.5"/>
	<path class="st0" d="M561.7,581.8c0-2.5-0.2-5.3-3-6.2c-4.3-1.4-7.2,5.3-8.9,7.9c-0.2,0.2-5.6,8.5-3.6,7.2c4.6-2.7,8.6-6,12.5-9.7
		c0.2-0.2,2.8-3.1,3.1-2.4c1.1,2.3,0.2,5.6,0.3,8c0.1,8.4,9.1,2.9,14.1,1.5"/>
	<path class="st0" d="M670.3,578.9c0.2-1.6,0.3-2.6-1.1-3.9c-4.6-4.2-13.7,4.6-16.3,8.1c-1.6,2.1-3.6,4.9-4.1,7.6
		c-0.5,2.6,5.1-1.6,7.2-3c9.7-6.6,17.5-14.8,24.4-24.2c4.7-6.4,9.9-14,10.9-22.1c0.5-4.5-2.7-0.1-3.7,1.5
		c-6.9,10.8-10.8,23.5-15.8,35.2c-1.9,4.5-4.1,8.8-5.6,13.5"/>
	<path class="st0" d="M672.7,591.1c1.4-1.8,3.3-3.3,5-4.9c4.3-3.9,10.4-8,13.3-13.1c0.5-0.9,1-2.6-0.7-2.7
		c-3.8-0.4-9.2,4.2-11.7,6.6c-2.1,1.9-6.6,9.1-1.7,11c5.5,2.1,13.9-0.4,19.4-1.5c7.2-1.5,14.4-3,21.7-4.3"/>
	<path class="st0" d="M633.1,547.6c1.4-1.5,4.5-5.7,0.9-6.9c-3.6-1.2-9,1.4-11.9,3c-8.5,4.7-16.3,11.7-22.6,19
		c-2.9,3.3-23,26.7-10.9,28.3c7.4,1,16.3-2,23.3-4c7.9-2.3,15.4-5.9,23-9.2"/>
	<path class="st0" d="M628.2,582.9c-0.6,10.7,17.2,2.3,20.8-2c4.2-5,2.5-10.4-4.7-7.9c-10,3.5-18.3,9.6-24.6,18"/>
</g>
<g>
	<path class="st0" d="M1494.8,364.6c0.3-3.6,0-7.4,0.9-11c0.3-1.3,1-1.5,2-0.8c3.1,2.3,5.4,4.2,9.2,5.4c10.4,3.5,22.3-3.3,28.2-12
		c1.1-1.6,2.2-3.5,2.4-5.4c0.2-1.5-0.3-1.3-0.7,0.1c-1.2,4.6-1.6,9.4-2.5,14.1c-2,10.2-4.3,20.6-7.7,30.5c-2.4,7.2-5.5,14.6-9.7,21
		c-3.6,5.4-9.1,12.5-15.2,15.3c-6.9,3.2-6.9-12-5.7-15.9c1.6-5,5.2-0.4,7.5,1.5"/>
	<path class="st0" d="M1530.4,411.7c0.8-0.2,1-2.3,0.8-2.9c-1.9-7.6-13.3,7.3-14.3,9c-1.5,2.7-2,4.6,1.6,2.9
		c5.2-2.6,8.8-6.7,12.7-10.8c0.3-0.3,2-3.1,1.4-1.9c-1.3,2.5-3.2,5.6-3.1,8.6c0.2,4.1,6.4,2,8.6,1.1c4.3-1.8,8.2-5.6,10.8-9.3
		c3.6-5.3-0.8,1-1.7,3.1c-1.1,2.6-2.6,12,2.7,9c5-2.8,8.6-7,12.6-11c1.4-1.4,2.9-2.7,3.9-4.5"/>
	<path class="st0" d="M1578.7,410.3c0-2.5-0.2-5.3-3-6.2c-4.3-1.4-7.2,5.3-8.9,7.9c-0.2,0.2-5.6,8.5-3.6,7.2c4.6-2.7,8.6-6,12.5-9.7
		c0.2-0.2,2.8-3.1,3.1-2.4c1.1,2.3,0.2,5.6,0.3,8c0.1,8.4,9.1,2.9,14.1,1.5"/>
	<path class="st0" d="M1687.4,407.3c0.2-1.6,0.3-2.6-1.1-3.9c-4.6-4.2-13.7,4.6-16.3,8.1c-1.6,2.1-3.6,4.9-4.1,7.6
		c-0.5,2.6,5.1-1.6,7.2-3c9.7-6.6,17.5-14.8,24.4-24.2c4.7-6.4,9.9-14,10.9-22.1c0.5-4.5-2.7-0.1-3.7,1.5
		c-6.9,10.8-10.8,23.5-15.8,35.2c-1.9,4.5-4.1,8.8-5.6,13.5"/>
	<path class="st0" d="M1689.8,419.6c1.4-1.8,3.3-3.3,5-4.9c4.3-3.9,10.4-7.9,13.3-13.1c0.5-0.9,1-2.6-0.7-2.7
		c-3.8-0.4-9.2,4.2-11.7,6.6c-2.1,1.9-6.6,9.1-1.7,11c5.5,2.1,13.9-0.4,19.4-1.5c7.2-1.5,14.4-3,21.7-4.3"/>
	<path class="st0" d="M1650.2,376.1c1.4-1.5,4.5-5.7,0.9-6.9c-3.6-1.2-9,1.4-11.9,3c-8.5,4.7-16.3,11.7-22.6,19
		c-2.9,3.3-23,26.7-10.9,28.3c7.4,1,16.3-2,23.3-4c7.9-2.3,15.4-5.9,23-9.2"/>
	<path class="st0" d="M1645.3,411.4c-0.6,10.7,17.2,2.3,20.8-2c4.2-5,2.5-10.4-4.7-7.9c-10,3.5-18.3,9.6-24.6,18"/>
</g>
<g>
	<path class="st0" d="M1934,359.5c0.3-3.6,0-7.4,0.9-11c0.3-1.3,1-1.5,2-0.8c3.1,2.3,5.4,4.2,9.2,5.4c10.4,3.5,22.3-3.3,28.2-12
		c1.1-1.6,2.2-3.5,2.4-5.4c0.2-1.5-0.3-1.3-0.7,0.1c-1.2,4.6-1.6,9.4-2.5,14.1c-2,10.2-4.3,20.6-7.7,30.5c-2.4,7.2-5.5,14.6-9.7,21
		c-3.6,5.4-9.1,12.5-15.2,15.3c-6.9,3.2-6.9-12-5.7-15.9c1.6-5,5.2-0.4,7.5,1.5"/>
	<path class="st0" d="M1969.6,406.5c0.8-0.2,1-2.3,0.8-2.9c-1.9-7.6-13.3,7.3-14.3,9c-1.5,2.7-2,4.6,1.6,2.9
		c5.2-2.6,8.8-6.7,12.7-10.8c0.3-0.3,2-3.1,1.4-1.9c-1.3,2.5-3.2,5.6-3.1,8.6c0.2,4.1,6.4,2,8.6,1.1c4.3-1.8,8.2-5.6,10.8-9.3
		c3.6-5.3-0.8,1-1.7,3.1c-1.1,2.6-2.6,12,2.7,9c5-2.8,8.6-7,12.6-11c1.4-1.4,2.9-2.7,3.9-4.5"/>
	<path class="st0" d="M2017.9,405.1c0-2.5-0.2-5.3-3-6.2c-4.3-1.4-7.2,5.3-8.9,7.9c-0.2,0.2-5.6,8.5-3.6,7.2c4.6-2.7,8.6-6,12.5-9.7
		c0.2-0.2,2.8-3.1,3.1-2.4c1.1,2.3,0.2,5.6,0.3,8c0.1,8.4,9.1,2.9,14.1,1.5"/>
	<path class="st0" d="M2126.5,402.2c0.2-1.6,0.3-2.6-1.1-3.9c-4.6-4.2-13.7,4.6-16.3,8.1c-1.6,2.1-3.6,4.9-4.1,7.6
		c-0.5,2.6,5.1-1.6,7.2-3c9.7-6.6,17.5-14.8,24.4-24.2c4.7-6.4,9.9-14,10.9-22.1c0.5-4.5-2.7-0.1-3.7,1.5
		c-6.9,10.8-10.8,23.5-15.8,35.2c-1.9,4.5-4.1,8.8-5.6,13.5"/>
	<path class="st0" d="M2129,414.4c1.4-1.8,3.3-3.3,5-4.9c4.3-3.9,10.4-7.9,13.3-13.1c0.5-0.9,1-2.6-0.7-2.7
		c-3.8-0.4-9.2,4.2-11.7,6.6c-2.1,1.9-6.6,9.1-1.7,11c5.5,2.1,13.9-0.4,19.4-1.5c7.2-1.5,14.4-3,21.7-4.3"/>
	<path class="st0" d="M2089.4,370.9c1.4-1.5,4.5-5.7,0.9-6.9c-3.6-1.2-9,1.4-11.9,3c-8.5,4.7-16.3,11.7-22.6,19
		c-2.9,3.3-23,26.7-10.9,28.3c7.4,1,16.3-2,23.3-4c7.9-2.3,15.4-5.9,23-9.2"/>
	<path class="st0" d="M2084.5,406.2c-0.6,10.7,17.2,2.3,20.8-2c4.2-5,2.5-10.4-4.7-7.9c-10,3.5-18.3,9.6-24.6,18"/>
</g>
<g>
	<path class="st0" d="M39.1,539c0.3-3.6,0-7.4,0.9-11c0.3-1.3,1-1.5,2-0.8c3.1,2.3,5.4,4.2,9.2,5.4c10.4,3.5,22.3-3.3,28.2-12
		c1.1-1.6,2.2-3.5,2.4-5.4c0.2-1.5-0.3-1.3-0.7,0.1c-1.2,4.6-1.6,9.4-2.5,14.1c-2,10.2-4.3,20.6-7.7,30.5c-2.4,7.2-5.5,14.6-9.7,21
		c-3.6,5.4-9.1,12.5-15.2,15.3c-6.9,3.2-6.9-12-5.7-15.9c1.6-5,5.2-0.4,7.5,1.5"/>
	<path class="st0" d="M74.7,586.1c0.8-0.2,1-2.3,0.8-2.9c-1.9-7.6-13.3,7.3-14.3,9c-1.5,2.7-2,4.6,1.6,2.9
		c5.2-2.6,8.8-6.7,12.7-10.8c0.3-0.3,2-3.1,1.4-1.9c-1.3,2.5-3.2,5.6-3.1,8.6c0.2,4.1,6.4,2,8.6,1.1c4.3-1.8,8.2-5.6,10.8-9.3
		c3.6-5.3-0.8,1-1.7,3.1c-1.1,2.6-2.6,12,2.7,9c5-2.8,8.6-7,12.6-11c1.4-1.4,2.9-2.7,3.9-4.5"/>
	<path class="st0" d="M123.1,584.7c0-2.5-0.2-5.3-3-6.2c-4.3-1.4-7.2,5.3-8.9,7.9c-0.2,0.2-5.6,8.5-3.6,7.2c4.6-2.7,8.6-6,12.5-9.7
		c0.2-0.2,2.8-3.1,3.1-2.4c1.1,2.3,0.2,5.6,0.3,8c0.1,8.4,9.1,2.9,14.1,1.5"/>
	<path class="st0" d="M231.7,581.7c0.2-1.6,0.3-2.6-1.1-3.9c-4.6-4.2-13.7,4.6-16.3,8.1c-1.6,2.1-3.6,4.9-4.1,7.6
		c-0.5,2.6,5.1-1.6,7.2-3c9.7-6.6,17.5-14.8,24.4-24.2c4.7-6.4,9.9-14,10.9-22.1c0.5-4.5-2.7-0.1-3.7,1.5
		c-6.9,10.8-10.8,23.5-15.8,35.2c-1.9,4.5-4.1,8.8-5.6,13.5"/>
	<path class="st0" d="M234.1,594c1.4-1.8,3.3-3.3,5-4.9c4.3-3.9,10.4-8,13.3-13.1c0.5-0.9,1-2.6-0.7-2.7c-3.8-0.4-9.2,4.2-11.7,6.6
		c-2.1,1.9-6.6,9.1-1.7,11c5.5,2.1,13.9-0.4,19.4-1.5c7.2-1.5,14.4-3,21.7-4.3"/>
	<path class="st0" d="M194.5,550.5c1.4-1.5,4.5-5.7,0.9-6.9c-3.6-1.2-9,1.4-11.9,3c-8.5,4.7-16.3,11.7-22.6,19
		c-2.9,3.3-23,26.7-10.9,28.3c7.4,1,16.3-2,23.3-4c7.9-2.3,15.4-5.9,23-9.2"/>
	<path class="st0" d="M189.6,585.8c-0.6,10.7,17.2,2.3,20.8-2c4.2-5,2.5-10.4-4.7-7.9c-10,3.5-18.3,9.6-24.6,18"/>
</g>
<g>
	<path class="st0" d="M1043.7,364c0.3-3.6,0-7.4,0.9-11c0.3-1.3,1-1.5,2-0.8c3.1,2.3,5.4,4.2,9.2,5.4c10.4,3.5,22.3-3.3,28.2-12
		c1.1-1.6,2.2-3.5,2.4-5.4c0.2-1.5-0.3-1.3-0.7,0.1c-1.2,4.6-1.6,9.4-2.5,14.1c-2,10.2-4.3,20.6-7.7,30.5c-2.4,7.2-5.5,14.6-9.7,21
		c-3.6,5.4-9.1,12.5-15.2,15.3c-6.9,3.2-6.9-12-5.7-15.9c1.6-5,5.2-0.4,7.5,1.5"/>
	<path class="st0" d="M1079.3,411.1c0.8-0.2,1-2.3,0.8-2.9c-1.9-7.6-13.3,7.3-14.3,9c-1.5,2.7-2,4.6,1.6,2.9
		c5.2-2.6,8.8-6.7,12.7-10.8c0.3-0.3,2-3.1,1.4-1.9c-1.3,2.5-3.2,5.6-3.1,8.6c0.2,4.1,6.4,2,8.6,1.1c4.3-1.8,8.2-5.6,10.8-9.3
		c3.6-5.3-0.8,1-1.7,3.1c-1.1,2.6-2.6,12,2.7,9c5-2.8,8.6-7,12.6-11c1.4-1.4,2.9-2.7,3.9-4.5"/>
	<path class="st0" d="M1127.7,409.7c0-2.5-0.2-5.3-3-6.2c-4.3-1.4-7.2,5.3-8.9,7.9c-0.2,0.2-5.6,8.5-3.6,7.2c4.6-2.7,8.6-6,12.5-9.7
		c0.2-0.2,2.8-3.1,3.1-2.4c1.1,2.3,0.2,5.6,0.3,8c0.1,8.4,9.1,2.9,14.1,1.5"/>
	<path class="st0" d="M1236.3,406.7c0.2-1.6,0.3-2.6-1.1-3.9c-4.6-4.2-13.7,4.6-16.3,8.1c-1.6,2.1-3.6,4.9-4.1,7.6
		c-0.5,2.6,5.1-1.6,7.2-3c9.7-6.6,17.5-14.8,24.4-24.2c4.7-6.4,9.9-14,10.9-22.1c0.5-4.5-2.7-0.1-3.7,1.5
		c-6.9,10.8-10.8,23.5-15.8,35.2c-1.9,4.5-4.1,8.8-5.6,13.5"/>
	<path class="st0" d="M1238.7,419c1.4-1.8,3.3-3.3,5-4.9c4.3-3.9,10.4-7.9,13.3-13.1c0.5-0.9,1-2.6-0.7-2.7
		c-3.8-0.4-9.2,4.2-11.7,6.6c-2.1,1.9-6.6,9.1-1.7,11c5.5,2.1,13.9-0.4,19.4-1.5c7.2-1.5,14.4-3,21.7-4.3"/>
	<path class="st0" d="M1199.1,375.5c1.4-1.5,4.5-5.7,0.9-6.9c-3.6-1.2-9,1.4-11.9,3c-8.5,4.7-16.3,11.7-22.6,19
		c-2.9,3.3-23,26.7-10.9,28.3c7.4,1,16.3-2,23.3-4c7.9-2.3,15.4-5.9,23-9.2"/>
	<path class="st0" d="M1194.2,410.8c-0.6,10.7,17.2,2.3,20.8-2c4.2-5,2.5-10.4-4.7-7.9c-10,3.5-18.3,9.6-24.6,18"/>
</g>
<g>
	<path class="st0" d="M-95.5,706c0.3-3.6,0-7.4,0.9-11c0.3-1.3,1-1.5,2-0.8c3.1,2.3,5.4,4.2,9.2,5.4c10.4,3.5,22.3-3.3,28.2-12
		c1.1-1.6,2.2-3.5,2.4-5.4c0.2-1.5-0.3-1.3-0.7,0.1c-1.2,4.6-1.6,9.4-2.5,14.1c-2,10.2-4.3,20.6-7.7,30.5c-2.4,7.2-5.5,14.6-9.7,21
		c-3.6,5.4-9.1,12.5-15.2,15.3c-6.9,3.2-6.9-12-5.7-15.9c1.6-5,5.2-0.4,7.5,1.5"/>
	<path class="st0" d="M-59.9,753.1c0.8-0.2,1-2.3,0.8-2.9c-1.9-7.6-13.3,7.3-14.3,9c-1.5,2.7-2,4.6,1.6,2.9
		c5.2-2.6,8.8-6.7,12.7-10.8c0.3-0.3,2-3.1,1.4-1.9c-1.3,2.5-3.2,5.6-3.1,8.6c0.2,4.1,6.4,2,8.6,1.1c4.3-1.8,8.2-5.6,10.8-9.3
		c3.6-5.3-0.8,1-1.7,3.1c-1.1,2.6-2.6,12,2.7,9c5-2.8,8.6-7,12.6-11c1.4-1.4,2.9-2.7,3.9-4.5"/>
	<path class="st0" d="M-11.5,751.7c0-2.5-0.2-5.3-3-6.2c-4.3-1.4-7.2,5.3-8.9,7.9c-0.2,0.2-5.6,8.5-3.6,7.2c4.6-2.7,8.6-6,12.5-9.7
		c0.2-0.2,2.8-3.1,3.1-2.4c1.1,2.3,0.2,5.6,0.3,8c0.1,8.4,9.1,2.9,14.1,1.5"/>
	<path class="st0" d="M97.1,748.7c0.2-1.6,0.3-2.6-1.1-3.9c-4.6-4.2-13.7,4.6-16.3,8.1c-1.6,2.1-3.6,4.9-4.1,7.6
		c-0.5,2.6,5.1-1.6,7.2-3.1c9.7-6.6,17.5-14.8,24.4-24.2c4.7-6.4,9.9-14,10.9-22.1c0.5-4.5-2.7-0.1-3.7,1.5
		c-6.9,10.8-10.8,23.5-15.8,35.2c-1.9,4.5-4.1,8.8-5.6,13.5"/>
	<path class="st0" d="M99.5,761c1.4-1.8,3.3-3.3,5-4.9c4.3-3.9,10.4-8,13.3-13.1c0.5-0.9,1-2.6-0.7-2.7c-3.8-0.4-9.2,4.2-11.7,6.6
		c-2.1,1.9-6.6,9.1-1.7,11c5.5,2.1,13.9-0.4,19.4-1.5c7.2-1.5,14.4-3,21.7-4.3"/>
	<path class="st0" d="M59.9,717.5c1.4-1.5,4.5-5.7,0.9-6.9c-3.6-1.2-9,1.4-11.9,3c-8.5,4.7-16.3,11.7-22.6,19
		c-2.9,3.3-23,26.7-10.9,28.3c7.4,1,16.3-2,23.3-4c7.9-2.3,15.4-5.9,23-9.2"/>
	<path class="st0" d="M55,752.8c-0.6,10.7,17.2,2.3,20.8-2c4.2-5,2.5-10.4-4.7-7.9c-10,3.5-18.3,9.6-24.6,18"/>
</g>
<g>
	<path class="st0" d="M1826.5,528.9c0.3-3.6,0-7.4,0.9-11c0.3-1.3,1-1.5,2-0.8c3.1,2.3,5.4,4.2,9.2,5.4c10.4,3.5,22.3-3.3,28.2-12
		c1.1-1.6,2.2-3.5,2.4-5.4c0.2-1.5-0.3-1.3-0.7,0.1c-1.2,4.6-1.6,9.4-2.5,14.1c-2,10.2-4.3,20.6-7.7,30.5c-2.4,7.2-5.5,14.6-9.7,21
		c-3.6,5.4-9.1,12.5-15.2,15.3c-6.9,3.2-6.9-12-5.7-15.9c1.6-5,5.2-0.4,7.5,1.5"/>
	<path class="st0" d="M1862.1,576c0.8-0.2,1-2.3,0.8-2.9c-1.9-7.6-13.3,7.3-14.3,9c-1.5,2.7-2,4.6,1.6,2.9
		c5.2-2.6,8.8-6.7,12.7-10.8c0.3-0.3,2-3.1,1.4-1.9c-1.3,2.5-3.2,5.6-3.1,8.6c0.2,4.1,6.4,2,8.6,1.1c4.3-1.8,8.2-5.6,10.8-9.3
		c3.6-5.3-0.8,1-1.7,3.1c-1.1,2.6-2.6,12,2.7,9c5-2.8,8.6-7,12.6-11c1.4-1.4,2.9-2.7,3.9-4.5"/>
	<path class="st0" d="M1910.5,574.6c0-2.5-0.2-5.3-3-6.2c-4.3-1.4-7.2,5.3-8.9,7.9c-0.2,0.2-5.6,8.5-3.6,7.2c4.6-2.7,8.6-6,12.5-9.7
		c0.2-0.2,2.8-3.1,3.1-2.4c1.1,2.3,0.2,5.6,0.3,8c0.1,8.4,9.1,2.9,14.1,1.5"/>
	<path class="st0" d="M2019.1,571.6c0.2-1.6,0.3-2.6-1.1-3.9c-4.6-4.2-13.7,4.6-16.3,8.1c-1.6,2.1-3.6,4.9-4.1,7.6
		c-0.5,2.6,5.1-1.6,7.2-3c9.7-6.6,17.5-14.8,24.4-24.2c4.7-6.4,9.9-14,10.9-22.1c0.5-4.5-2.7-0.1-3.7,1.5
		c-6.9,10.8-10.8,23.5-15.8,35.2c-1.9,4.5-4.1,8.8-5.6,13.5"/>
	<path class="st0" d="M2021.5,583.9c1.4-1.8,3.3-3.3,5-4.9c4.3-3.9,10.4-8,13.3-13.1c0.5-0.9,1-2.6-0.7-2.7
		c-3.8-0.4-9.2,4.2-11.7,6.6c-2.1,1.9-6.6,9.1-1.7,11c5.5,2.1,13.9-0.4,19.4-1.5c7.2-1.5,14.4-3,21.7-4.3"/>
	<path class="st0" d="M1981.9,540.4c1.4-1.5,4.5-5.7,0.9-6.9c-3.6-1.2-9,1.4-11.9,3c-8.5,4.7-16.3,11.7-22.6,19
		c-2.9,3.3-23,26.7-10.9,28.3c7.4,1,16.3-2,23.3-4c7.9-2.3,15.4-5.9,23-9.2"/>
	<path class="st0" d="M1977,575.7c-0.6,10.7,17.2,2.3,20.8-2c4.2-5,2.5-10.4-4.7-7.9c-10,3.5-18.3,9.6-24.6,18"/>
</g>
<g>
	<path class="st0" d="M1386.6,532.4c0.3-3.6,0-7.4,0.9-11c0.3-1.3,1-1.5,2-0.8c3.1,2.3,5.4,4.2,9.2,5.4c10.4,3.5,22.3-3.3,28.2-12
		c1.1-1.6,2.2-3.5,2.4-5.4c0.2-1.5-0.3-1.3-0.7,0.1c-1.2,4.6-1.6,9.4-2.5,14.1c-2,10.2-4.3,20.6-7.7,30.5c-2.4,7.2-5.5,14.6-9.7,21
		c-3.6,5.4-9.1,12.5-15.2,15.3c-6.9,3.2-6.9-12-5.7-15.9c1.6-5,5.2-0.4,7.5,1.5"/>
	<path class="st0" d="M1422.1,579.5c0.8-0.2,1-2.3,0.8-2.9c-1.9-7.6-13.3,7.3-14.3,9c-1.5,2.7-2,4.6,1.6,2.9
		c5.2-2.6,8.8-6.7,12.7-10.8c0.3-0.3,2-3.1,1.4-1.9c-1.3,2.5-3.2,5.6-3.1,8.6c0.2,4.1,6.4,2,8.6,1.1c4.3-1.8,8.2-5.6,10.8-9.3
		c3.6-5.3-0.8,1-1.7,3.1c-1.1,2.6-2.6,12,2.7,9c5-2.8,8.6-7,12.6-11c1.4-1.4,2.9-2.7,3.9-4.5"/>
	<path class="st0" d="M1470.5,578.1c0-2.5-0.2-5.3-3-6.2c-4.3-1.4-7.2,5.3-8.9,7.9c-0.2,0.2-5.6,8.5-3.6,7.2c4.6-2.7,8.6-6,12.5-9.7
		c0.2-0.2,2.8-3.1,3.1-2.4c1.1,2.3,0.2,5.6,0.3,8c0.1,8.4,9.1,2.9,14.1,1.5"/>
	<path class="st0" d="M1579.1,575.1c0.2-1.6,0.3-2.6-1.1-3.9c-4.6-4.2-13.7,4.6-16.3,8.1c-1.6,2.1-3.6,4.9-4.1,7.6
		c-0.5,2.6,5.1-1.6,7.2-3c9.7-6.6,17.5-14.8,24.4-24.2c4.7-6.4,9.9-14,10.9-22.1c0.5-4.5-2.7-0.1-3.7,1.5
		c-6.9,10.8-10.8,23.5-15.8,35.2c-1.9,4.5-4.1,8.8-5.6,13.5"/>
	<path class="st0" d="M1581.6,587.3c1.4-1.8,3.3-3.3,5-4.9c4.3-3.9,10.4-8,13.3-13.1c0.5-0.9,1-2.6-0.7-2.7
		c-3.8-0.4-9.2,4.2-11.7,6.6c-2.1,1.9-6.6,9.1-1.7,11c5.5,2.1,13.9-0.4,19.4-1.5c7.2-1.5,14.4-3,21.7-4.3"/>
	<path class="st0" d="M1542,543.8c1.4-1.5,4.5-5.7,0.9-6.9c-3.6-1.2-9,1.4-11.9,3c-8.5,4.7-16.3,11.7-22.6,19
		c-2.9,3.3-23,26.7-10.9,28.3c7.4,1,16.3-2,23.3-4c7.9-2.3,15.4-5.9,23-9.2"/>
	<path class="st0" d="M1537.1,579.2c-0.6,10.7,17.2,2.3,20.8-2c4.2-5,2.5-10.4-4.7-7.9c-10,3.5-18.3,9.6-24.6,18"/>
</g>
<g>
	<path class="st0" d="M930.9,536.9c0.3-3.6,0-7.4,0.9-11c0.3-1.3,1-1.5,2-0.8c3.1,2.3,5.4,4.2,9.2,5.4c10.4,3.5,22.3-3.3,28.2-12
		c1.1-1.6,2.2-3.5,2.4-5.4c0.2-1.5-0.3-1.3-0.7,0.1c-1.2,4.6-1.6,9.4-2.5,14.1c-2,10.2-4.3,20.6-7.7,30.5c-2.4,7.2-5.5,14.6-9.7,21
		c-3.6,5.4-9.1,12.5-15.2,15.3c-6.9,3.2-6.9-12-5.7-15.9c1.6-5,5.2-0.4,7.5,1.5"/>
	<path class="st0" d="M966.5,584c0.8-0.2,1-2.3,0.8-2.9c-1.9-7.6-13.3,7.3-14.3,9c-1.5,2.7-2,4.6,1.6,2.9c5.2-2.6,8.8-6.7,12.7-10.8
		c0.3-0.3,2-3.1,1.4-1.9c-1.3,2.5-3.2,5.6-3.1,8.6c0.2,4.1,6.4,2,8.6,1.1c4.3-1.8,8.2-5.6,10.8-9.3c3.6-5.3-0.8,1-1.7,3.1
		c-1.1,2.6-2.6,12,2.7,9c5-2.8,8.6-7,12.6-11c1.4-1.4,2.9-2.7,3.9-4.5"/>
	<path class="st0" d="M1014.8,582.6c0-2.5-0.2-5.3-3-6.2c-4.3-1.4-7.2,5.3-8.9,7.9c-0.2,0.2-5.6,8.5-3.6,7.2c4.6-2.7,8.6-6,12.5-9.7
		c0.2-0.2,2.8-3.1,3.1-2.4c1.1,2.3,0.2,5.6,0.3,8c0.1,8.4,9.1,2.9,14.1,1.5"/>
	<path class="st0" d="M1123.4,579.6c0.2-1.6,0.3-2.6-1.1-3.9c-4.6-4.2-13.7,4.6-16.3,8.1c-1.6,2.1-3.6,4.9-4.1,7.6
		c-0.5,2.6,5.1-1.6,7.2-3c9.7-6.6,17.5-14.8,24.4-24.2c4.7-6.4,9.9-14,10.9-22.1c0.5-4.5-2.7-0.1-3.7,1.5
		c-6.9,10.8-10.8,23.5-15.8,35.2c-1.9,4.5-4.1,8.8-5.6,13.5"/>
	<path class="st0" d="M1125.9,591.9c1.4-1.8,3.3-3.3,5-4.9c4.3-3.9,10.4-8,13.3-13.1c0.5-0.9,1-2.6-0.7-2.7
		c-3.8-0.4-9.2,4.2-11.7,6.6c-2.1,1.9-6.6,9.1-1.7,11c5.5,2.1,13.9-0.4,19.4-1.5c7.2-1.5,14.4-3,21.7-4.3"/>
	<path class="st0" d="M1086.3,548.4c1.4-1.5,4.5-5.7,0.9-6.9c-3.6-1.2-9,1.4-11.9,3c-8.5,4.7-16.3,11.7-22.6,19
		c-2.9,3.3-23,26.7-10.9,28.3c7.4,1,16.3-2,23.3-4c7.9-2.3,15.4-5.9,23-9.2"/>
	<path class="st0" d="M1081.4,583.7c-0.6,10.7,17.2,2.3,20.8-2c4.2-5,2.5-10.4-4.7-7.9c-10,3.5-18.3,9.6-24.6,18"/>
</g>
<g>
	<path class="st0" d="M367,706c0.3-3.6,0-7.4,0.9-11c0.3-1.3,1-1.5,2-0.8c3.1,2.3,5.4,4.2,9.2,5.4c10.4,3.5,22.3-3.3,28.2-12
		c1.1-1.6,2.2-3.5,2.4-5.4c0.2-1.5-0.3-1.3-0.7,0.1c-1.2,4.6-1.6,9.4-2.5,14.1c-2,10.2-4.3,20.6-7.7,30.5c-2.4,7.2-5.5,14.6-9.7,21
		c-3.6,5.4-9.1,12.5-15.2,15.3c-6.9,3.2-6.9-12-5.7-15.9c1.6-5,5.2-0.4,7.5,1.5"/>
	<path class="st0" d="M402.6,753.1c0.8-0.2,1-2.3,0.8-2.9c-1.9-7.6-13.3,7.3-14.3,9c-1.5,2.7-2,4.6,1.6,2.9
		c5.2-2.6,8.8-6.7,12.7-10.8c0.3-0.3,2-3.1,1.4-1.9c-1.3,2.5-3.2,5.6-3.1,8.6c0.2,4.1,6.4,2,8.6,1.1c4.3-1.8,8.2-5.6,10.8-9.3
		c3.6-5.3-0.8,1-1.7,3.1c-1.1,2.6-2.6,12,2.7,9c5-2.8,8.6-7,12.6-11c1.4-1.4,2.9-2.7,3.9-4.5"/>
	<path class="st0" d="M450.9,751.7c0-2.5-0.2-5.3-3-6.2c-4.3-1.4-7.2,5.3-8.9,7.9c-0.2,0.2-5.6,8.5-3.6,7.2c4.6-2.7,8.6-6,12.5-9.7
		c0.2-0.2,2.8-3.1,3.1-2.4c1.1,2.3,0.2,5.6,0.3,8c0.1,8.4,9.1,2.9,14.1,1.5"/>
	<path class="st0" d="M559.5,748.7c0.2-1.6,0.3-2.6-1.1-3.9c-4.6-4.2-13.7,4.6-16.3,8.1c-1.6,2.1-3.6,4.9-4.1,7.6
		c-0.5,2.6,5.1-1.6,7.2-3.1c9.7-6.6,17.5-14.8,24.4-24.2c4.7-6.4,9.9-14,10.9-22.1c0.5-4.5-2.7-0.1-3.7,1.5
		c-6.9,10.8-10.8,23.5-15.8,35.2c-1.9,4.5-4.1,8.8-5.6,13.5"/>
	<path class="st0" d="M562,761c1.4-1.8,3.3-3.3,5-4.9c4.3-3.9,10.4-8,13.3-13.1c0.5-0.9,1-2.6-0.7-2.7c-3.8-0.4-9.2,4.2-11.7,6.6
		c-2.1,1.9-6.6,9.1-1.7,11c5.5,2.1,13.9-0.4,19.4-1.5c7.2-1.5,14.4-3,21.7-4.3"/>
	<path class="st0" d="M522.4,717.5c1.4-1.5,4.5-5.7,0.9-6.9c-3.6-1.2-9,1.4-11.9,3c-8.5,4.7-16.3,11.7-22.6,19
		c-2.9,3.3-23,26.7-10.9,28.3c7.4,1,16.3-2,23.3-4c7.9-2.3,15.4-5.9,23-9.2"/>
	<path class="st0" d="M517.5,752.8c-0.6,10.7,17.2,2.3,20.8-2c4.2-5,2.5-10.4-4.7-7.9c-10,3.5-18.3,9.6-24.6,18"/>
</g>
<g>
	<path class="st0" d="M819.8,702.8c0.3-3.6,0-7.4,0.9-11c0.3-1.3,1-1.5,2-0.8c3.1,2.3,5.4,4.2,9.2,5.4c10.4,3.5,22.3-3.3,28.2-12
		c1.1-1.6,2.2-3.5,2.4-5.4c0.2-1.5-0.3-1.3-0.7,0.1c-1.2,4.6-1.6,9.4-2.5,14.1c-2,10.2-4.3,20.6-7.7,30.5c-2.4,7.2-5.5,14.6-9.7,21
		c-3.6,5.4-9.1,12.5-15.2,15.3c-6.9,3.2-6.9-12-5.7-15.9c1.6-5,5.2-0.4,7.5,1.5"/>
	<path class="st0" d="M855.4,749.9c0.8-0.2,1-2.3,0.8-2.9c-1.9-7.6-13.3,7.3-14.3,9c-1.5,2.7-2,4.6,1.6,2.9
		c5.2-2.6,8.8-6.7,12.7-10.8c0.3-0.3,2-3.1,1.4-1.9c-1.3,2.5-3.2,5.6-3.1,8.6c0.2,4.1,6.4,2,8.6,1.1c4.3-1.8,8.2-5.6,10.8-9.3
		c3.6-5.3-0.8,1-1.7,3.1c-1.1,2.6-2.6,12,2.7,9c5-2.8,8.6-7,12.6-11c1.4-1.4,2.9-2.7,3.9-4.5"/>
	<path class="st0" d="M903.7,748.5c0-2.5-0.2-5.3-3-6.2c-4.3-1.4-7.2,5.3-8.9,7.9c-0.2,0.2-5.6,8.5-3.6,7.2c4.6-2.7,8.6-6,12.5-9.7
		c0.2-0.2,2.8-3.1,3.1-2.4c1.1,2.3,0.2,5.6,0.3,8c0.1,8.4,9.1,2.9,14.1,1.5"/>
	<path class="st0" d="M1012.4,745.6c0.2-1.6,0.3-2.6-1.1-3.9c-4.6-4.2-13.7,4.6-16.3,8.1c-1.6,2.1-3.6,4.9-4.1,7.6
		c-0.5,2.6,5.1-1.6,7.2-3c9.7-6.6,17.5-14.8,24.4-24.2c4.7-6.4,9.9-14,10.9-22.1c0.5-4.5-2.7-0.1-3.7,1.5
		c-6.9,10.8-10.8,23.5-15.8,35.2c-1.9,4.5-4.1,8.8-5.6,13.5"/>
	<path class="st0" d="M1014.8,757.8c1.4-1.8,3.3-3.3,5-4.9c4.3-3.9,10.4-8,13.3-13.1c0.5-0.9,1-2.6-0.7-2.7
		c-3.8-0.4-9.2,4.2-11.7,6.6c-2.1,1.9-6.6,9.1-1.7,11c5.5,2.1,13.9-0.4,19.4-1.5c7.2-1.5,14.4-3,21.7-4.3"/>
	<path class="st0" d="M975.2,714.3c1.4-1.5,4.5-5.7,0.9-6.9c-3.6-1.2-9,1.4-11.9,3c-8.5,4.7-16.3,11.7-22.6,19
		c-2.9,3.3-23,26.7-10.9,28.3c7.4,1,16.3-2,23.3-4c7.9-2.3,15.4-5.9,23-9.2"/>
	<path class="st0" d="M970.3,749.6c-0.6,10.7,17.2,2.3,20.8-2c4.2-5,2.5-10.4-4.7-7.9c-10,3.5-18.3,9.6-24.6,18"/>
</g>
<g>
	<path class="st0" d="M1722.5,700.4c0.3-3.6,0-7.4,0.9-11c0.3-1.3,1-1.5,2-0.8c3.1,2.3,5.4,4.2,9.2,5.4c10.4,3.5,22.3-3.3,28.2-12
		c1.1-1.6,2.2-3.5,2.4-5.4c0.2-1.5-0.3-1.3-0.7,0.1c-1.2,4.6-1.6,9.4-2.5,14.1c-2,10.2-4.3,20.6-7.7,30.5c-2.4,7.2-5.5,14.6-9.7,21
		c-3.6,5.4-9.1,12.5-15.2,15.3c-6.9,3.2-6.9-12-5.7-15.9c1.6-5,5.2-0.4,7.5,1.5"/>
	<path class="st0" d="M1758.1,747.5c0.8-0.2,1-2.3,0.8-2.9c-1.9-7.6-13.3,7.3-14.3,9c-1.5,2.7-2,4.6,1.6,2.9
		c5.2-2.6,8.8-6.7,12.7-10.8c0.3-0.3,2-3.1,1.4-1.9c-1.3,2.5-3.2,5.6-3.1,8.6c0.2,4.1,6.4,2,8.6,1.1c4.3-1.8,8.2-5.6,10.8-9.3
		c3.6-5.3-0.8,1-1.7,3.1c-1.1,2.6-2.6,12,2.7,9c5-2.8,8.6-7,12.6-11c1.4-1.4,2.9-2.7,3.9-4.5"/>
	<path class="st0" d="M1806.5,746.1c0-2.5-0.2-5.3-3-6.2c-4.3-1.4-7.2,5.3-8.9,7.9c-0.2,0.2-5.6,8.5-3.6,7.2c4.6-2.7,8.6-6,12.5-9.7
		c0.2-0.2,2.8-3.1,3.1-2.4c1.1,2.3,0.2,5.6,0.3,8c0.1,8.4,9.1,2.9,14.1,1.5"/>
	<path class="st0" d="M1915.1,743.1c0.2-1.6,0.3-2.6-1.1-3.9c-4.6-4.2-13.7,4.6-16.3,8.1c-1.6,2.1-3.6,4.9-4.1,7.6
		c-0.5,2.6,5.1-1.6,7.2-3c9.7-6.6,17.5-14.8,24.4-24.2c4.7-6.4,9.9-14,10.9-22.1c0.5-4.5-2.7-0.1-3.7,1.5
		c-6.9,10.8-10.8,23.5-15.8,35.2c-1.9,4.5-4.1,8.8-5.6,13.5"/>
	<path class="st0" d="M1917.5,755.3c1.4-1.8,3.3-3.3,5-4.9c4.3-3.9,10.4-8,13.3-13.1c0.5-0.9,1-2.6-0.7-2.7
		c-3.8-0.4-9.2,4.2-11.7,6.6c-2.1,1.9-6.6,9.1-1.7,11c5.5,2.1,13.9-0.4,19.4-1.5c7.2-1.5,14.4-3,21.7-4.3"/>
	<path class="st0" d="M1877.9,711.8c1.4-1.5,4.5-5.7,0.9-6.9c-3.6-1.2-9,1.4-11.9,3c-8.5,4.7-16.3,11.7-22.6,19
		c-2.9,3.3-23,26.7-10.9,28.3c7.4,1,16.3-2,23.3-4c7.9-2.3,15.4-5.9,23-9.2"/>
	<path class="st0" d="M1873,747.2c-0.6,10.7,17.2,2.3,20.8-2c4.2-5,2.5-10.4-4.7-7.9c-10,3.5-18.3,9.6-24.6,18"/>
</g>
<g>
	<path class="st0" d="M1263.3,707.2c0.3-3.6,0-7.4,0.9-11c0.3-1.3,1-1.5,2-0.8c3.1,2.3,5.4,4.2,9.2,5.4c10.4,3.5,22.3-3.3,28.2-12
		c1.1-1.6,2.2-3.5,2.4-5.4c0.2-1.5-0.3-1.3-0.7,0.1c-1.2,4.6-1.6,9.4-2.5,14.1c-2,10.2-4.3,20.6-7.7,30.5c-2.4,7.2-5.5,14.6-9.7,21
		c-3.6,5.4-9.1,12.5-15.2,15.3c-6.9,3.2-6.9-12-5.7-15.9c1.6-5,5.2-0.4,7.5,1.5"/>
	<path class="st0" d="M1298.9,754.3c0.8-0.2,1-2.3,0.8-2.9c-1.9-7.6-13.3,7.3-14.3,9c-1.5,2.7-2,4.6,1.6,2.9
		c5.2-2.6,8.8-6.7,12.7-10.8c0.3-0.3,2-3.1,1.4-1.9c-1.3,2.5-3.2,5.6-3.1,8.6c0.2,4.1,6.4,2,8.6,1.1c4.3-1.8,8.2-5.6,10.8-9.3
		c3.6-5.3-0.8,1-1.7,3.1c-1.1,2.6-2.6,12,2.7,9c5-2.8,8.6-7,12.6-11c1.4-1.4,2.9-2.7,3.9-4.5"/>
	<path class="st0" d="M1347.3,752.9c0-2.5-0.2-5.3-3-6.2c-4.3-1.4-7.2,5.3-8.9,7.9c-0.2,0.2-5.6,8.5-3.6,7.2c4.6-2.7,8.6-6,12.5-9.7
		c0.2-0.2,2.8-3.1,3.1-2.4c1.1,2.3,0.2,5.6,0.3,8c0.1,8.4,9.1,2.9,14.1,1.5"/>
	<path class="st0" d="M1455.9,749.9c0.2-1.6,0.3-2.6-1.1-3.9c-4.6-4.2-13.7,4.6-16.3,8.1c-1.6,2.1-3.6,4.9-4.1,7.6
		c-0.5,2.6,5.1-1.6,7.2-3c9.7-6.6,17.5-14.8,24.4-24.2c4.7-6.4,9.9-14,10.9-22.1c0.5-4.5-2.7-0.1-3.7,1.5
		c-6.9,10.8-10.8,23.5-15.8,35.2c-1.9,4.5-4.1,8.8-5.6,13.5"/>
	<path class="st0" d="M1458.3,762.2c1.4-1.8,3.3-3.3,5-4.9c4.3-3.9,10.4-8,13.3-13.1c0.5-0.9,1-2.6-0.7-2.7
		c-3.8-0.4-9.2,4.2-11.7,6.6c-2.1,1.9-6.6,9.1-1.7,11c5.5,2.1,13.9-0.4,19.4-1.5c7.2-1.5,14.4-3,21.7-4.3"/>
	<path class="st0" d="M1418.7,718.7c1.4-1.5,4.5-5.7,0.9-6.9c-3.6-1.2-9,1.4-11.9,3c-8.5,4.7-16.3,11.7-22.6,19
		c-2.9,3.3-23,26.7-10.9,28.3c7.4,1,16.3-2,23.3-4c7.9-2.3,15.4-5.9,23-9.2"/>
	<path class="st0" d="M1413.8,754c-0.6,10.7,17.2,2.3,20.8-2c4.2-5,2.5-10.4-4.7-7.9c-10,3.5-18.3,9.6-24.6,18"/>
</g>
<g>
	<path class="st0" d="M1610.6,874.9c0.3-3.6,0-7.4,0.9-11c0.3-1.3,1-1.5,2-0.8c3.1,2.3,5.4,4.2,9.2,5.4c10.4,3.5,22.3-3.3,28.2-12
		c1.1-1.6,2.2-3.5,2.4-5.4c0.2-1.5-0.3-1.3-0.7,0.1c-1.2,4.6-1.6,9.4-2.5,14.1c-2,10.2-4.3,20.6-7.7,30.5c-2.4,7.2-5.5,14.6-9.7,21
		c-3.6,5.4-9.1,12.5-15.2,15.3c-6.9,3.2-6.9-12-5.7-15.9c1.6-5,5.2-0.4,7.5,1.5"/>
	<path class="st0" d="M1646.2,921.9c0.8-0.2,1-2.3,0.8-2.9c-1.9-7.6-13.3,7.3-14.3,9c-1.5,2.7-2,4.6,1.6,2.9
		c5.2-2.6,8.8-6.7,12.7-10.8c0.3-0.3,2-3.1,1.4-1.9c-1.3,2.5-3.2,5.6-3.1,8.6c0.2,4.1,6.4,2,8.6,1.1c4.3-1.8,8.2-5.6,10.8-9.3
		c3.6-5.3-0.8,1-1.7,3.1c-1.1,2.6-2.6,12,2.7,9c5-2.8,8.6-7,12.6-11c1.4-1.4,2.9-2.7,3.9-4.5"/>
	<path class="st0" d="M1694.5,920.5c0-2.5-0.2-5.3-3-6.2c-4.3-1.4-7.2,5.3-8.9,7.9c-0.2,0.2-5.6,8.5-3.6,7.2c4.6-2.7,8.6-6,12.5-9.7
		c0.2-0.2,2.8-3.1,3.1-2.4c1.1,2.3,0.2,5.6,0.3,8c0.1,8.4,9.1,2.9,14.1,1.5"/>
	<path class="st0" d="M1803.1,917.6c0.2-1.6,0.3-2.6-1.1-3.9c-4.6-4.2-13.7,4.6-16.3,8.1c-1.6,2.1-3.6,4.9-4.1,7.6
		c-0.5,2.6,5.1-1.6,7.2-3c9.7-6.6,17.5-14.8,24.4-24.2c4.7-6.4,9.9-14,10.9-22.1c0.5-4.5-2.7-0.1-3.7,1.5
		c-6.9,10.8-10.8,23.5-15.8,35.2c-1.9,4.5-4.1,8.8-5.6,13.5"/>
	<path class="st0" d="M1805.6,929.8c1.4-1.8,3.3-3.3,5-4.9c4.3-3.9,10.4-8,13.3-13.1c0.5-0.9,1-2.6-0.7-2.7
		c-3.8-0.4-9.2,4.2-11.7,6.6c-2.1,1.9-6.6,9.1-1.7,11c5.5,2.1,13.9-0.4,19.4-1.5c7.2-1.5,14.4-3,21.7-4.3"/>
	<path class="st0" d="M1766,886.3c1.4-1.5,4.5-5.7,0.9-6.9c-3.6-1.2-9,1.4-11.9,3c-8.5,4.7-16.3,11.7-22.6,19
		c-2.9,3.3-23,26.7-10.9,28.3c7.4,1,16.3-2,23.3-4c7.9-2.3,15.4-5.9,23-9.2"/>
	<path class="st0" d="M1761.1,921.6c-0.6,10.7,17.2,2.3,20.8-2c4.2-5,2.5-10.4-4.7-7.9c-10,3.5-18.3,9.6-24.6,18"/>
</g>
<g>
	<path class="st0" d="M1157.5,871.9c0.3-3.6,0-7.4,0.9-11c0.3-1.3,1-1.5,2-0.8c3.1,2.3,5.4,4.2,9.2,5.4c10.4,3.5,22.3-3.3,28.2-12
		c1.1-1.6,2.2-3.5,2.4-5.4c0.2-1.5-0.3-1.3-0.7,0.1c-1.2,4.6-1.6,9.4-2.5,14.1c-2,10.2-4.3,20.6-7.7,30.5c-2.4,7.2-5.5,14.6-9.7,21
		c-3.6,5.4-9.1,12.5-15.2,15.3c-6.9,3.2-6.9-12-5.7-15.9c1.6-5,5.2-0.4,7.5,1.5"/>
	<path class="st0" d="M1193.1,918.9c0.8-0.2,1-2.3,0.8-2.9c-1.9-7.6-13.3,7.3-14.3,9c-1.5,2.7-2,4.6,1.6,2.9
		c5.2-2.6,8.8-6.7,12.7-10.8c0.3-0.3,2-3.1,1.4-1.9c-1.3,2.5-3.2,5.6-3.1,8.6c0.2,4.1,6.4,2,8.6,1.1c4.3-1.8,8.2-5.6,10.8-9.3
		c3.6-5.3-0.8,1-1.7,3.1c-1.1,2.6-2.6,12,2.7,9c5-2.8,8.6-7,12.6-11c1.4-1.4,2.9-2.7,3.9-4.5"/>
	<path class="st0" d="M1241.5,917.5c0-2.5-0.2-5.3-3-6.2c-4.3-1.4-7.2,5.3-8.9,7.9c-0.2,0.2-5.6,8.5-3.6,7.2c4.6-2.7,8.6-6,12.5-9.7
		c0.2-0.2,2.8-3.1,3.1-2.4c1.1,2.3,0.2,5.6,0.3,8c0.1,8.4,9.1,2.9,14.1,1.5"/>
	<path class="st0" d="M1350.1,914.6c0.2-1.6,0.3-2.6-1.1-3.9c-4.6-4.2-13.7,4.6-16.3,8.1c-1.6,2.1-3.6,4.9-4.1,7.6
		c-0.5,2.6,5.1-1.6,7.2-3c9.7-6.6,17.5-14.8,24.4-24.2c4.7-6.4,9.9-14,10.9-22.1c0.5-4.5-2.7-0.1-3.7,1.5
		c-6.9,10.8-10.8,23.5-15.8,35.2c-1.9,4.5-4.1,8.8-5.6,13.5"/>
	<path class="st0" d="M1352.5,926.8c1.4-1.8,3.3-3.3,5-4.9c4.3-3.9,10.4-8,13.3-13.1c0.5-0.9,1-2.6-0.7-2.7
		c-3.8-0.4-9.2,4.2-11.7,6.6c-2.1,1.9-6.6,9.1-1.7,11c5.5,2.1,13.9-0.4,19.4-1.5c7.2-1.5,14.4-3,21.7-4.3"/>
	<path class="st0" d="M1312.9,883.3c1.4-1.5,4.5-5.7,0.9-6.9c-3.6-1.2-9,1.4-11.9,3c-8.5,4.7-16.3,11.7-22.6,19
		c-2.9,3.3-23,26.7-10.9,28.3c7.4,1,16.3-2,23.3-4c7.9-2.3,15.4-5.9,23-9.2"/>
	<path class="st0" d="M1308,918.6c-0.6,10.7,17.2,2.3,20.8-2c4.2-5,2.5-10.4-4.7-7.9c-10,3.5-18.3,9.6-24.6,18"/>
</g>
<g>
	<path class="st0" d="M706.2,874.9c0.3-3.6,0-7.4,0.9-11c0.3-1.3,1-1.5,2-0.8c3.1,2.3,5.4,4.2,9.2,5.4c10.4,3.5,22.3-3.3,28.2-12
		c1.1-1.6,2.2-3.5,2.4-5.4c0.2-1.5-0.3-1.3-0.7,0.1c-1.2,4.6-1.6,9.4-2.5,14.1c-2,10.2-4.3,20.6-7.7,30.5c-2.4,7.2-5.5,14.6-9.7,21
		c-3.6,5.4-9.1,12.5-15.2,15.3c-6.9,3.2-6.9-12-5.7-15.9c1.6-5,5.2-0.4,7.5,1.5"/>
	<path class="st0" d="M741.8,921.9c0.8-0.2,1-2.3,0.8-2.9c-1.9-7.6-13.3,7.3-14.3,9c-1.5,2.7-2,4.6,1.6,2.9
		c5.2-2.6,8.8-6.7,12.7-10.8c0.3-0.3,2-3.1,1.4-1.9c-1.3,2.5-3.2,5.6-3.1,8.6c0.2,4.1,6.4,2,8.6,1.1c4.3-1.8,8.2-5.6,10.8-9.3
		c3.6-5.3-0.8,1-1.7,3.1c-1.1,2.6-2.6,12,2.7,9c5-2.8,8.6-7,12.6-11c1.4-1.4,2.9-2.7,3.9-4.5"/>
	<path class="st0" d="M790.1,920.5c0-2.5-0.2-5.3-3-6.2c-4.3-1.4-7.2,5.3-8.9,7.9c-0.2,0.2-5.6,8.5-3.6,7.2c4.6-2.7,8.6-6,12.5-9.7
		c0.2-0.2,2.8-3.1,3.1-2.4c1.1,2.3,0.2,5.6,0.3,8c0.1,8.4,9.1,2.9,14.1,1.5"/>
	<path class="st0" d="M898.7,917.6c0.2-1.6,0.3-2.6-1.1-3.9c-4.6-4.2-13.7,4.6-16.3,8.1c-1.6,2.1-3.6,4.9-4.1,7.6
		c-0.5,2.6,5.1-1.6,7.2-3c9.7-6.6,17.5-14.8,24.4-24.2c4.7-6.4,9.9-14,10.9-22.1c0.5-4.5-2.7-0.1-3.7,1.5
		c-6.9,10.8-10.8,23.5-15.8,35.2c-1.9,4.5-4.1,8.8-5.6,13.5"/>
	<path class="st0" d="M901.2,929.8c1.4-1.8,3.3-3.3,5-4.9c4.3-3.9,10.4-8,13.3-13.1c0.5-0.9,1-2.6-0.7-2.7
		c-3.8-0.4-9.2,4.2-11.7,6.6c-2.1,1.9-6.6,9.1-1.7,11c5.5,2.1,13.9-0.4,19.4-1.5c7.2-1.5,14.4-3,21.7-4.3"/>
	<path class="st0" d="M861.6,886.3c1.4-1.5,4.5-5.7,0.9-6.9c-3.6-1.2-9,1.4-11.9,3c-8.5,4.7-16.3,11.7-22.6,19
		c-2.9,3.3-23,26.7-10.9,28.3c7.4,1,16.3-2,23.3-4c7.9-2.3,15.4-5.9,23-9.2"/>
	<path class="st0" d="M856.7,921.6c-0.6,10.7,17.2,2.3,20.8-2c4.2-5,2.5-10.4-4.7-7.9c-10,3.5-18.3,9.6-24.6,18"/>
</g>
<g>
	<path class="st0" d="M241.5,875.9c0.3-3.6,0-7.4,0.9-11c0.3-1.3,1-1.5,2-0.8c3.1,2.3,5.4,4.2,9.2,5.4c10.4,3.5,22.3-3.3,28.2-12
		c1.1-1.6,2.2-3.5,2.4-5.4c0.2-1.5-0.3-1.3-0.7,0.1c-1.2,4.6-1.6,9.4-2.5,14.1c-2,10.2-4.3,20.6-7.7,30.5c-2.4,7.2-5.5,14.6-9.7,21
		c-3.6,5.4-9.1,12.5-15.2,15.3c-6.9,3.2-6.9-12-5.7-15.9c1.6-5,5.2-0.4,7.5,1.5"/>
	<path class="st0" d="M277.1,922.9c0.8-0.2,1-2.3,0.8-2.9c-1.9-7.6-13.3,7.3-14.3,9c-1.5,2.7-2,4.6,1.6,2.9
		c5.2-2.6,8.8-6.7,12.7-10.8c0.3-0.3,2-3.1,1.4-1.9c-1.3,2.5-3.2,5.6-3.1,8.6c0.2,4.1,6.4,2,8.6,1.1c4.3-1.8,8.2-5.6,10.8-9.3
		c3.6-5.3-0.8,1-1.7,3.1c-1.1,2.6-2.6,12,2.7,9c5-2.8,8.6-7,12.6-11c1.4-1.4,2.9-2.7,3.9-4.5"/>
	<path class="st0" d="M325.4,921.5c0-2.5-0.2-5.3-3-6.2c-4.3-1.4-7.2,5.3-8.9,7.9c-0.2,0.2-5.6,8.5-3.6,7.2c4.6-2.7,8.6-6,12.5-9.7
		c0.2-0.2,2.8-3.1,3.1-2.4c1.1,2.3,0.2,5.6,0.3,8c0.1,8.4,9.1,2.9,14.1,1.5"/>
	<path class="st0" d="M434,918.6c0.2-1.6,0.3-2.6-1.1-3.9c-4.6-4.2-13.7,4.6-16.3,8.1c-1.6,2.1-3.6,4.9-4.1,7.6
		c-0.5,2.6,5.1-1.6,7.2-3c9.7-6.6,17.5-14.8,24.4-24.2c4.7-6.4,9.9-14,10.9-22.1c0.5-4.5-2.7-0.1-3.7,1.5
		c-6.9,10.8-10.8,23.5-15.8,35.2c-1.9,4.5-4.1,8.8-5.6,13.5"/>
	<path class="st0" d="M436.5,930.8c1.4-1.8,3.3-3.3,5-4.9c4.3-3.9,10.4-8,13.3-13.1c0.5-0.9,1-2.6-0.7-2.7
		c-3.8-0.4-9.2,4.2-11.7,6.6c-2.1,1.9-6.6,9.1-1.7,11c5.5,2.1,13.9-0.4,19.4-1.5c7.2-1.5,14.4-3,21.7-4.3"/>
	<path class="st0" d="M396.9,887.3c1.4-1.5,4.5-5.7,0.9-6.9c-3.6-1.2-9,1.4-11.9,3c-8.5,4.7-16.3,11.7-22.6,19
		c-2.9,3.3-23,26.7-10.9,28.3c7.4,1,16.3-2,23.3-4c7.9-2.3,15.4-5.9,23-9.2"/>
	<path class="st0" d="M392,922.6c-0.6,10.7,17.2,2.3,20.8-2c4.2-5,2.5-10.4-4.7-7.9c-10,3.5-18.3,9.6-24.6,18"/>
</g>
<g>
	<path class="st0" d="M-186.9,874.5c0.3-3.6,0-7.4,0.9-11c0.3-1.3,1-1.5,2-0.8c3.1,2.3,5.4,4.2,9.2,5.4c10.4,3.5,22.3-3.3,28.2-12
		c1.1-1.6,2.2-3.5,2.4-5.4c0.2-1.5-0.3-1.3-0.7,0.1c-1.2,4.6-1.6,9.4-2.5,14.1c-2,10.2-4.3,20.6-7.7,30.5c-2.4,7.2-5.5,14.6-9.7,21
		c-3.6,5.4-9.1,12.5-15.2,15.3c-6.9,3.2-6.9-12-5.7-15.9c1.6-5,5.2-0.4,7.5,1.5"/>
	<path class="st0" d="M-151.3,921.6c0.8-0.2,1-2.3,0.8-2.9c-1.9-7.6-13.3,7.3-14.3,9c-1.5,2.7-2,4.6,1.6,2.9
		c5.2-2.6,8.8-6.7,12.7-10.8c0.3-0.3,2-3.1,1.4-1.9c-1.3,2.5-3.2,5.6-3.1,8.6c0.2,4.1,6.4,2,8.6,1.1c4.3-1.8,8.2-5.6,10.8-9.3
		c3.6-5.3-0.8,1-1.7,3.1c-1.1,2.6-2.6,12,2.7,9c5-2.8,8.6-7,12.6-11c1.4-1.4,2.9-2.7,3.9-4.5"/>
	<path class="st0" d="M-103,920.2c0-2.5-0.2-5.3-3-6.2c-4.3-1.4-7.2,5.3-8.9,7.9c-0.2,0.2-5.6,8.5-3.6,7.2c4.6-2.7,8.6-6,12.5-9.7
		c0.2-0.2,2.8-3.1,3.1-2.4c1.1,2.3,0.2,5.6,0.3,8c0.1,8.4,9.1,2.9,14.1,1.5"/>
	<path class="st0" d="M5.6,917.2c0.2-1.6,0.3-2.6-1.1-3.9c-4.6-4.2-13.7,4.6-16.3,8.1c-1.6,2.1-3.6,4.9-4.1,7.6
		c-0.5,2.6,5.1-1.6,7.2-3c9.7-6.6,17.5-14.8,24.4-24.2c4.7-6.4,9.9-14,10.9-22.1c0.5-4.5-2.7-0.1-3.7,1.5
		C15.9,892,12,904.8,7.1,916.5c-1.9,4.5-4.1,8.8-5.6,13.5"/>
	<path class="st0" d="M8.1,929.5c1.4-1.8,3.3-3.3,5-4.9c4.3-3.9,10.4-8,13.3-13.1c0.5-0.9,1-2.6-0.7-2.7c-3.8-0.4-9.2,4.2-11.7,6.6
		c-2.1,1.9-6.6,9.1-1.7,11c5.5,2.1,13.9-0.4,19.4-1.5c7.2-1.5,14.4-3,21.7-4.3"/>
	<path class="st0" d="M-31.5,886c1.4-1.5,4.5-5.7,0.9-6.9c-3.6-1.2-9,1.4-11.9,3c-8.5,4.7-16.3,11.7-22.6,19
		c-2.9,3.3-23,26.7-10.9,28.3c7.4,1,16.3-2,23.3-4c7.9-2.3,15.4-5.9,23-9.2"/>
	<path class="st0" d="M-36.4,921.3c-0.6,10.7,17.2,2.3,20.8-2c4.2-5,2.5-10.4-4.7-7.9c-10,3.5-18.3,9.6-24.6,18"/>
</g>
<g>
	<path class="st0" d="M129.1,1022.7c0.3-3.6,0-7.4,0.9-11c0.3-1.3,1-1.5,2-0.8c3.1,2.3,5.4,4.2,9.2,5.4c10.4,3.5,22.3-3.3,28.2-12
		c1.1-1.6,2.2-3.5,2.4-5.4c0.2-1.5-0.3-1.3-0.7,0.1c-1.2,4.6-1.6,9.4-2.5,14.1c-2,10.2-4.3,20.6-7.7,30.5c-2.4,7.2-5.5,14.6-9.7,21
		c-3.6,5.4-9.1,12.5-15.2,15.3c-6.9,3.2-6.9-12-5.7-15.9c1.6-5,5.2-0.4,7.5,1.5"/>
	<path class="st0" d="M164.7,1069.8c0.8-0.2,1-2.3,0.8-2.9c-1.9-7.6-13.3,7.3-14.3,9c-1.5,2.7-2,4.6,1.6,2.9
		c5.2-2.6,8.8-6.7,12.7-10.8c0.3-0.3,2-3.1,1.4-1.9c-1.3,2.5-3.2,5.6-3.1,8.6c0.2,4.1,6.4,2,8.6,1.1c4.3-1.8,8.2-5.6,10.8-9.3
		c3.6-5.3-0.8,1-1.7,3.1c-1.1,2.6-2.6,12,2.7,9c5-2.8,8.6-7,12.6-11c1.4-1.4,2.9-2.7,3.9-4.5"/>
	<path class="st0" d="M213.1,1068.4c0-2.5-0.2-5.3-3-6.2c-4.3-1.4-7.2,5.3-8.9,7.9c-0.2,0.2-5.6,8.5-3.6,7.2c4.6-2.7,8.6-6,12.5-9.7
		c0.2-0.2,2.8-3.1,3.1-2.4c1.1,2.3,0.2,5.6,0.3,8c0.1,8.4,9.1,2.9,14.1,1.5"/>
	<path class="st0" d="M321.7,1065.4c0.2-1.6,0.3-2.6-1.1-3.9c-4.6-4.2-13.7,4.6-16.3,8.1c-1.6,2.1-3.6,4.9-4.1,7.6
		c-0.5,2.6,5.1-1.6,7.2-3.1c9.7-6.6,17.5-14.8,24.4-24.2c4.7-6.4,9.9-14,10.9-22.1c0.5-4.5-2.7-0.1-3.7,1.5
		c-6.9,10.8-10.8,23.5-15.8,35.2c-1.9,4.5-4.1,8.8-5.6,13.5"/>
	<path class="st0" d="M324.1,1077.7c1.4-1.8,3.3-3.3,5-4.9c4.3-3.9,10.4-8,13.3-13.1c0.5-0.9,1-2.6-0.7-2.7
		c-3.8-0.4-9.2,4.2-11.7,6.6c-2.1,1.9-6.6,9.1-1.7,11c5.5,2.1,13.9-0.4,19.4-1.5c7.2-1.5,14.4-3,21.7-4.3"/>
	<path class="st0" d="M284.5,1034.2c1.4-1.5,4.5-5.7,0.9-6.9c-3.6-1.2-9,1.4-11.9,3c-8.5,4.7-16.3,11.7-22.6,19
		c-2.9,3.3-23,26.7-10.9,28.3c7.4,1,16.3-2,23.3-4c7.9-2.3,15.4-5.9,23-9.2"/>
	<path class="st0" d="M279.6,1069.5c-0.6,10.7,17.2,2.3,20.8-2c4.2-5,2.5-10.4-4.7-7.9c-10,3.5-18.3,9.6-24.6,18"/>
</g>
<g>
	<path class="st0" d="M592.4,1025.2c0.3-3.6,0-7.4,0.9-11c0.3-1.3,1-1.5,2-0.8c3.1,2.3,5.4,4.2,9.2,5.4c10.4,3.5,22.3-3.3,28.2-12
		c1.1-1.6,2.2-3.5,2.4-5.4c0.2-1.5-0.3-1.3-0.7,0.1c-1.2,4.6-1.6,9.4-2.5,14.1c-2,10.2-4.3,20.6-7.7,30.5c-2.4,7.2-5.5,14.6-9.7,21
		c-3.6,5.4-9.1,12.5-15.2,15.3c-6.9,3.2-6.9-12-5.7-15.9c1.6-5,5.2-0.4,7.5,1.5"/>
	<path class="st0" d="M628,1072.3c0.8-0.2,1-2.3,0.8-2.9c-1.9-7.6-13.3,7.3-14.3,9c-1.5,2.7-2,4.6,1.6,2.9
		c5.2-2.6,8.8-6.7,12.7-10.8c0.3-0.3,2-3.1,1.4-1.9c-1.3,2.5-3.2,5.6-3.1,8.6c0.2,4.1,6.4,2,8.6,1.1c4.3-1.8,8.2-5.6,10.8-9.3
		c3.6-5.3-0.8,1-1.7,3.1c-1.1,2.6-2.6,12,2.7,9c5-2.8,8.6-7,12.6-11c1.4-1.4,2.9-2.7,3.9-4.5"/>
	<path class="st0" d="M676.4,1070.9c0-2.5-0.2-5.3-3-6.2c-4.3-1.4-7.2,5.3-8.9,7.9c-0.2,0.2-5.6,8.5-3.6,7.2c4.6-2.7,8.6-6,12.5-9.7
		c0.2-0.2,2.8-3.1,3.1-2.4c1.1,2.3,0.2,5.6,0.3,8c0.1,8.4,9.1,2.9,14.1,1.5"/>
	<path class="st0" d="M785,1067.9c0.2-1.6,0.3-2.6-1.1-3.9c-4.6-4.2-13.7,4.6-16.3,8.1c-1.6,2.1-3.6,4.9-4.1,7.6
		c-0.5,2.6,5.1-1.6,7.2-3c9.7-6.6,17.5-14.8,24.4-24.2c4.7-6.4,9.9-14,10.9-22.1c0.5-4.5-2.7-0.1-3.7,1.5
		c-6.9,10.8-10.8,23.5-15.8,35.2c-1.9,4.5-4.1,8.8-5.6,13.5"/>
	<path class="st0" d="M787.4,1080.2c1.4-1.8,3.3-3.3,5-4.9c4.3-3.9,10.4-7.9,13.3-13.1c0.5-0.9,1-2.6-0.7-2.7
		c-3.8-0.4-9.2,4.2-11.7,6.6c-2.1,1.9-6.6,9.1-1.7,11c5.5,2.1,13.9-0.4,19.4-1.5c7.2-1.5,14.4-3,21.7-4.3"/>
	<path class="st0" d="M747.8,1036.7c1.4-1.5,4.5-5.7,0.9-6.9c-3.6-1.2-9,1.4-11.9,3c-8.5,4.7-16.3,11.7-22.6,19
		c-2.9,3.3-23,26.7-10.9,28.3c7.4,1,16.3-2,23.3-4c7.9-2.3,15.4-5.9,23-9.2"/>
	<path class="st0" d="M742.9,1072c-0.6,10.7,17.2,2.3,20.8-2c4.2-5,2.5-10.4-4.7-7.9c-10,3.5-18.3,9.6-24.6,18"/>
</g>
<g>
	<path class="st0" d="M1034,1024.5c0.3-3.6,0-7.4,0.9-11c0.3-1.3,1-1.5,2-0.8c3.1,2.3,5.4,4.2,9.2,5.4c10.4,3.5,22.3-3.3,28.2-12
		c1.1-1.6,2.2-3.5,2.4-5.4c0.2-1.5-0.3-1.3-0.7,0.1c-1.2,4.6-1.6,9.4-2.5,14.1c-2,10.2-4.3,20.6-7.7,30.5c-2.4,7.2-5.5,14.6-9.7,21
		c-3.6,5.4-9.1,12.5-15.2,15.3c-6.9,3.2-6.9-12-5.7-15.9c1.6-5,5.2-0.4,7.5,1.5"/>
	<path class="st0" d="M1069.6,1071.6c0.8-0.2,1-2.3,0.8-2.9c-1.9-7.6-13.3,7.3-14.3,9c-1.5,2.7-2,4.6,1.6,2.9
		c5.2-2.6,8.8-6.7,12.7-10.8c0.3-0.3,2-3.1,1.4-1.9c-1.3,2.5-3.2,5.6-3.1,8.6c0.2,4.1,6.4,2,8.6,1.1c4.3-1.8,8.2-5.6,10.8-9.3
		c3.6-5.3-0.8,1-1.7,3.1c-1.1,2.6-2.6,12,2.7,9c5-2.8,8.6-7,12.6-11c1.4-1.4,2.9-2.7,3.9-4.5"/>
	<path class="st0" d="M1118,1070.2c0-2.5-0.2-5.3-3-6.2c-4.3-1.4-7.2,5.3-8.9,7.9c-0.2,0.2-5.6,8.5-3.6,7.2c4.6-2.7,8.6-6,12.5-9.7
		c0.2-0.2,2.8-3.1,3.1-2.4c1.1,2.3,0.2,5.6,0.3,8c0.1,8.4,9.1,2.9,14.1,1.5"/>
	<path class="st0" d="M1226.6,1067.2c0.2-1.6,0.3-2.6-1.1-3.9c-4.6-4.2-13.7,4.6-16.3,8.1c-1.6,2.1-3.6,4.9-4.1,7.6
		c-0.5,2.6,5.1-1.6,7.2-3c9.7-6.6,17.5-14.8,24.4-24.2c4.7-6.4,9.9-14,10.9-22.1c0.5-4.5-2.7-0.1-3.7,1.5
		c-6.9,10.8-10.8,23.5-15.8,35.2c-1.9,4.5-4.1,8.8-5.6,13.5"/>
	<path class="st0" d="M1229,1079.5c1.4-1.8,3.3-3.3,5-4.9c4.3-3.9,10.4-8,13.3-13.1c0.5-0.9,1-2.6-0.7-2.7
		c-3.8-0.4-9.2,4.2-11.7,6.6c-2.1,1.9-6.6,9.1-1.7,11c5.5,2.1,13.9-0.4,19.4-1.5c7.2-1.5,14.4-3,21.7-4.3"/>
	<path class="st0" d="M1189.4,1036c1.4-1.5,4.5-5.7,0.9-6.9c-3.6-1.2-9,1.4-11.9,3c-8.5,4.7-16.3,11.7-22.6,19
		c-2.9,3.3-23,26.7-10.9,28.3c7.4,1,16.3-2,23.3-4c7.9-2.3,15.4-5.9,23-9.2"/>
	<path class="st0" d="M1184.5,1071.3c-0.6,10.7,17.2,2.3,20.8-2c4.2-5,2.5-10.4-4.7-7.9c-10,3.5-18.3,9.6-24.6,18"/>
</g>
<g>
	<path class="st0" d="M1498.5,1019c0.3-3.6,0-7.4,0.9-11c0.3-1.3,1-1.5,2-0.8c3.1,2.3,5.4,4.2,9.2,5.4c10.4,3.5,22.3-3.3,28.2-12
		c1.1-1.6,2.2-3.5,2.4-5.4c0.2-1.5-0.3-1.3-0.7,0.1c-1.2,4.6-1.6,9.4-2.5,14.1c-2,10.2-4.3,20.6-7.7,30.5c-2.4,7.2-5.5,14.6-9.7,21
		c-3.6,5.4-9.1,12.5-15.2,15.3c-6.9,3.2-6.9-12-5.7-15.9c1.6-5,5.2-0.4,7.5,1.5"/>
	<path class="st0" d="M1534.1,1066.1c0.8-0.2,1-2.3,0.8-2.9c-1.9-7.6-13.3,7.3-14.3,9c-1.5,2.7-2,4.6,1.6,2.9
		c5.2-2.6,8.8-6.7,12.7-10.8c0.3-0.3,2-3.1,1.4-1.9c-1.3,2.5-3.2,5.6-3.1,8.6c0.2,4.1,6.4,2,8.6,1.1c4.3-1.8,8.2-5.6,10.8-9.3
		c3.6-5.3-0.8,1-1.7,3.1c-1.1,2.6-2.6,12,2.7,9c5-2.8,8.6-7,12.6-11c1.4-1.4,2.9-2.7,3.9-4.5"/>
	<path class="st0" d="M1582.5,1064.7c0-2.5-0.2-5.3-3-6.2c-4.3-1.4-7.2,5.3-8.9,7.9c-0.2,0.2-5.6,8.5-3.6,7.2
		c4.6-2.7,8.6-6,12.5-9.7c0.2-0.2,2.8-3.1,3.1-2.4c1.1,2.3,0.2,5.6,0.3,8c0.1,8.4,9.1,2.9,14.1,1.5"/>
	<path class="st0" d="M1691.1,1061.7c0.2-1.6,0.3-2.6-1.1-3.9c-4.6-4.2-13.7,4.6-16.3,8.1c-1.6,2.1-3.6,4.9-4.1,7.6
		c-0.5,2.6,5.1-1.6,7.2-3c9.7-6.6,17.5-14.8,24.4-24.2c4.7-6.4,9.9-14,10.9-22.1c0.5-4.5-2.7-0.1-3.7,1.5
		c-6.9,10.8-10.8,23.5-15.8,35.2c-1.9,4.5-4.1,8.8-5.6,13.5"/>
	<path class="st0" d="M1693.5,1074c1.4-1.8,3.3-3.3,5-4.9c4.3-3.9,10.4-7.9,13.3-13.1c0.5-0.9,1-2.6-0.7-2.7
		c-3.8-0.4-9.2,4.2-11.7,6.6c-2.1,1.9-6.6,9.1-1.7,11c5.5,2.1,13.9-0.4,19.4-1.5c7.2-1.5,14.4-3,21.7-4.3"/>
	<path class="st0" d="M1653.9,1030.5c1.4-1.5,4.5-5.7,0.9-6.9c-3.6-1.2-9,1.4-11.9,3c-8.5,4.7-16.3,11.7-22.6,19
		c-2.9,3.3-23,26.7-10.9,28.3c7.4,1,16.3-2,23.3-4c7.9-2.3,15.4-5.9,23-9.2"/>
	<path class="st0" d="M1649,1065.8c-0.6,10.7,17.2,2.3,20.8-2c4.2-5,2.5-10.4-4.7-7.9c-10,3.5-18.3,9.6-24.6,18"/>
</g>
<g>
	<path class="st0" d="M-185.1,198.9c0.3-3.6,0-7.4,0.9-11c0.3-1.3,1-1.5,2-0.8c3.1,2.3,5.4,4.2,9.2,5.4c10.4,3.5,22.3-3.3,28.2-12
		c1.1-1.6,2.2-3.5,2.4-5.4c0.2-1.5-0.3-1.3-0.7,0.1c-1.2,4.6-1.6,9.4-2.5,14.1c-2,10.2-4.3,20.6-7.7,30.5c-2.4,7.2-5.5,14.6-9.7,21
		c-3.6,5.4-9.1,12.5-15.2,15.3c-6.9,3.2-6.9-12-5.7-15.9c1.6-5,5.2-0.4,7.5,1.5"/>
	<path class="st0" d="M-149.5,246c0.8-0.2,1-2.3,0.8-2.9c-1.9-7.6-13.3,7.3-14.3,9c-1.5,2.7-2,4.6,1.6,2.9
		c5.2-2.6,8.8-6.7,12.7-10.8c0.3-0.3,2-3.1,1.4-1.9c-1.3,2.5-3.2,5.6-3.1,8.6c0.2,4.1,6.4,2,8.6,1.1c4.3-1.8,8.2-5.6,10.8-9.3
		c3.6-5.3-0.8,1-1.7,3.1c-1.1,2.6-2.6,12,2.7,9c5-2.8,8.6-7,12.6-11c1.4-1.4,2.9-2.7,3.9-4.5"/>
	<path class="st0" d="M-101.1,244.6c0-2.5-0.2-5.3-3-6.2c-4.3-1.4-7.2,5.3-8.9,7.9c-0.2,0.2-5.6,8.5-3.6,7.2c4.6-2.7,8.6-6,12.5-9.7
		c0.2-0.2,2.8-3.1,3.1-2.4c1.1,2.3,0.2,5.6,0.3,8c0.1,8.4,9.1,2.9,14.1,1.5"/>
	<path class="st0" d="M7.5,241.6c0.2-1.6,0.3-2.6-1.1-3.9c-4.6-4.2-13.7,4.6-16.3,8.1c-1.6,2.1-3.6,4.9-4.1,7.6
		c-0.5,2.6,5.1-1.6,7.2-3.1c9.7-6.6,17.5-14.8,24.4-24.2c4.7-6.4,9.9-14,10.9-22.1c0.5-4.5-2.7-0.1-3.7,1.5
		c-6.9,10.8-10.8,23.5-15.8,35.2c-1.9,4.5-4.1,8.8-5.6,13.5"/>
	<path class="st0" d="M9.9,253.9c1.4-1.8,3.3-3.3,5-4.9c4.3-3.9,10.4-7.9,13.3-13.1c0.5-0.9,1-2.6-0.7-2.7
		c-3.8-0.4-9.2,4.2-11.7,6.6c-2.1,1.9-6.6,9.1-1.7,11c5.5,2.1,13.9-0.4,19.4-1.5c7.2-1.5,14.4-3,21.7-4.3"/>
	<path class="st0" d="M-29.7,210.4c1.4-1.5,4.5-5.7,0.9-6.9c-3.6-1.2-9,1.4-11.9,3c-8.5,4.7-16.3,11.7-22.6,19
		c-2.9,3.3-23,26.7-10.9,28.3c7.4,1,16.3-2,23.3-4c7.9-2.3,15.4-5.9,23-9.2"/>
	<path class="st0" d="M-34.6,245.7c-0.6,10.7,17.2,2.3,20.8-2c4.2-5,2.5-10.4-4.7-7.9c-10,3.5-18.3,9.6-24.6,18"/>
</g>
</svg>
